<?xml version="1.0" encoding="UTF-8"?>
<svg version="1.1" xmlns="http://www.w3.org/2000/svg" width="500" height="500">
<path d="M0 0 C9.33333333 4.66666667 18.66666667 9.33333333 28 14 C28 19.61 28 25.22 28 31 C29.423125 30.773125 30.84625 30.54625 32.3125 30.3125 C36.21598563 30.29041522 37.70829865 30.77307647 40.83203125 33.203125 C42.73230512 35.14858021 44.58119078 37.0946561 46.3984375 39.11328125 C48.58382624 41.53820959 50.7616746 43.65077567 53.25 45.75 C56.53174 48.5455563 59.56316019 51.51434754 62.5546875 54.6171875 C63.97109777 56.10854485 63.97109777 56.10854485 66 57 C66 57.66 66 58.32 66 59 C66.66 59 67.32 59 68 59 C68.515625 59.845625 69.03125 60.69125 69.5625 61.5625 C71.6496474 64.19975163 71.6496474 64.19975163 73.89628601 64.07902527 C74.98729362 63.9203875 74.98729362 63.9203875 76.1003418 63.75854492 C77.30513687 63.58770889 77.30513687 63.58770889 78.53427124 63.41342163 C82.31654627 62.77925848 86.07557207 62.07291611 89.83203125 61.30078125 C91.47058918 60.97533725 93.10926459 60.65048424 94.74804688 60.32617188 C97.29484552 59.81849043 99.84058097 59.30673987 102.38452148 58.78491211 C104.86478467 58.27813042 107.3478942 57.78816556 109.83203125 57.30078125 C110.59248245 57.14047928 111.35293365 56.98017731 112.13642883 56.8150177 C115.17899735 56.22880593 117.43675319 55.80674975 120.40795898 56.82617188 C122.20921012 58.15425276 123.71408244 59.55838356 125.25 61.1875 C127.7202041 63.73670849 130.24154523 66.12819493 132.9375 68.4375 C135.74576347 70.85617779 138.39970593 73.35899683 141 76 C143.51955389 78.55869259 146.08118782 80.98170611 148.8125 83.3125 C152.71628676 86.66408117 156.31617139 90.28626618 159.92626953 93.94580078 C163.18331547 97.2299982 166.55740498 100.29702558 170.07421875 103.296875 C173.54386825 106.36536827 176.76502448 109.68759155 180 113 C176.23829569 113 175.52973542 112.07115626 172.6875 109.6875 C171.79417969 108.95144531 170.90085937 108.21539062 169.98046875 107.45703125 C168.99691406 106.64621094 168.01335937 105.83539063 167 105 C164.84357925 103.27854492 162.6724813 101.57612019 160.5 99.875 C159.92113037 99.42044434 159.34226074 98.96588867 158.74584961 98.49755859 C153.76029005 94.58571946 148.75517391 90.6991877 143.75 86.8125 C137.45830646 81.92567125 131.20208698 77.0002985 125 72 C123.12550669 70.49936685 121.25050958 68.99936281 119.375 67.5 C117.91666667 66.33333333 116.45833333 65.16666667 115 64 C110.78492862 65.64085571 107.98284278 68.76403699 104.87890625 71.92578125 C104.00624367 72.80268867 104.00624367 72.80268867 103.11595154 73.6973114 C101.26004158 75.56438702 99.41119648 77.43828434 97.5625 79.3125 C96.32272942 80.5623092 95.08249975 81.81166318 93.84179688 83.06054688 C91.55255606 85.3660834 89.26604865 87.67425764 86.98266602 89.9855957 C82.74532791 94.27060821 78.4965352 98.48523643 74 102.5 C66.71833727 109.05974269 59.88624233 116.08656415 53.03515625 123.08984375 C52.15472656 123.981875 51.27429688 124.87390625 50.3671875 125.79296875 C49.57425293 126.6027417 48.78131836 127.41251465 47.96435547 128.24682617 C46 130 46 130 44 130 C43.77699219 130.56074219 43.55398438 131.12148438 43.32421875 131.69921875 C41.28055593 135.25000754 38.24473523 137.62574828 35.10945129 140.22364807 C31.07228545 143.70331391 28.12650404 147.17710969 25.23388672 151.66064453 C18.68732389 160.90289715 11.69951262 168.21388043 0.17453003 170.27731323 C-15.66361879 172.3212412 -31.80879616 171.61581468 -47.7286377 171.15942383 C-54.35290526 170.99724355 -60.97759033 170.97939727 -67.60351562 170.94335938 C-77.24987161 170.86482198 -86.89423831 170.74892026 -96.5378418 170.50024414 C-97.54396011 170.4806514 -98.55007843 170.46105865 -99.58668518 170.44087219 C-100.97127426 170.39951141 -100.97127426 170.39951141 -102.38383484 170.35731506 C-103.1835757 170.33666017 -103.98331656 170.31600527 -104.80729198 170.29472446 C-107.22407177 169.96988225 -108.89409949 169.20297024 -111 168 C-105.39476999 162.92484204 -99.76774721 157.89004655 -94 153 C-95.574283 149.0001036 -98.18745731 146.80900039 -101.37475586 143.99633789 C-107.2585246 138.72782168 -112.87601919 133.24448226 -118.43686104 127.63830376 C-120.05337826 126.00872191 -121.67326337 124.38254994 -123.29393005 122.75709534 C-126.7196723 119.32009638 -130.14136859 115.87908769 -133.5625 112.4375 C-137.56365623 108.41265922 -141.56649866 104.38952326 -145.5735302 100.37053108 C-147.16596237 98.77164081 -148.75534759 97.16976416 -150.34461975 95.56773376 C-151.3162692 94.5924538 -152.28805818 93.61731284 -153.26000977 92.64233398 C-154.1053981 91.79170883 -154.95078644 90.94108368 -155.8217926 90.06468201 C-158.01993314 87.86406466 -158.01993314 87.86406466 -161 86 C-161 85.34 -161 84.68 -161 84 C-162.485 83.505 -162.485 83.505 -164 83 C-164 82.34 -164 81.68 -164 81 C-164.59383484 80.73148224 -165.18766968 80.46296448 -165.79949951 80.18630981 C-168.01320315 78.99288206 -169.44506436 77.79692662 -171.20800781 76.01904297 C-171.80832825 75.41857147 -172.40864868 74.81809998 -173.02716064 74.19943237 C-173.66272888 73.55354156 -174.29829712 72.90765076 -174.953125 72.2421875 C-175.61334656 71.57913605 -176.27356812 70.91608459 -176.95379639 70.23294067 C-179.05727824 68.11828168 -181.15369142 65.99676788 -183.25 63.875 C-184.67662261 62.43834443 -186.10370072 61.00214102 -187.53125 59.56640625 C-191.02613661 56.04949196 -194.51470062 52.52641453 -198 49 C-202.90893548 52.20217973 -207.70075848 55.40341295 -212.1875 59.1875 C-216.34895491 62.64765123 -220.55134261 66.03938559 -224.8125 69.375 C-225.40119873 69.83608154 -225.98989746 70.29716309 -226.59643555 70.7722168 C-227.79794163 71.71270323 -228.99968432 72.65288744 -230.20166016 73.59277344 C-233.13807345 75.8905587 -236.06880334 78.19556651 -239 80.5 C-242.60481549 83.3328639 -246.21010358 86.16512325 -249.81640625 88.99609375 C-250.44353516 89.48851562 -251.07066406 89.9809375 -251.71679688 90.48828125 C-252.90935999 91.42466414 -254.10205882 92.36087423 -255.29492188 93.296875 C-258.54346866 95.84792835 -261.7787327 98.41458807 -265 101 C-265.66 100.67 -266.32 100.34 -267 100 C-266.00363813 98.97561545 -265.00260713 97.95577287 -264 96.9375 C-263.443125 96.36902344 -262.88625 95.80054688 -262.3125 95.21484375 C-260.33399106 93.31988671 -258.31792271 91.51792477 -256.25 89.72265625 C-252.06572225 86.0851435 -248.0246487 82.31241137 -244 78.5 C-239.40243537 74.14488507 -234.75092686 69.88413596 -229.96875 65.73242188 C-226.74392325 62.89470231 -223.62606697 59.94552057 -220.5 57 C-211.3058094 48.40001114 -211.3058094 48.40001114 -208.3125 45.6875 C-207.75175781 45.17574219 -207.19101563 44.66398437 -206.61328125 44.13671875 C-204.71255141 42.79746358 -203.28363681 42.41579564 -201 42 C-198.18810447 42.50118143 -195.49079579 43.08678102 -192.7265625 43.78125 C-191.87977432 43.9860347 -191.03298615 44.1908194 -190.16053772 44.40180969 C-187.31318167 45.09257874 -184.46920981 45.79639816 -181.625 46.5 C-179.60414382 46.99268918 -177.58306037 47.48444693 -175.56176758 47.9753418 C-171.13233748 49.05241134 -166.70421609 50.13467083 -162.27685547 51.22021484 C-154.53340369 53.11692372 -146.7847088 54.99170281 -139.03515625 56.86328125 C-137.66615754 57.19395748 -136.29715933 57.52463578 -134.92816162 57.85531616 C-132.87496566 58.3512563 -130.82176742 58.84718695 -128.76855469 59.34305763 C-124.15010412 60.45862684 -119.53218421 61.57636553 -114.91455078 62.6953125 C-113.66228699 62.99859467 -112.41002319 63.30187683 -111.11981201 63.61434937 C-108.65305599 64.2124761 -106.18661873 64.81191915 -103.72052002 65.41275024 C-97.76664892 66.86061544 -91.80868113 68.28036315 -85.83447266 69.64208984 C-84.69573196 69.90503342 -83.55699127 70.16797699 -82.38374329 70.43888855 C-80.25549957 70.92898822 -78.12522407 71.41038653 -75.99259949 71.88105774 C-68.89298885 73.52675141 -63.18207682 75.79695051 -57.640625 80.69921875 C-57.08737549 81.18221436 -56.53412598 81.66520996 -55.96411133 82.1628418 C-55.39845459 82.665979 -54.83279785 83.16911621 -54.25 83.6875 C-53.03071181 84.75087653 -51.81064972 85.8133663 -50.58984375 86.875 C-49.98897949 87.39964844 -49.38811523 87.92429687 -48.76904297 88.46484375 C-46.14537912 90.74163071 -43.48734321 92.97089686 -40.8125 95.1875 C-39.95269531 95.90292969 -39.09289062 96.61835938 -38.20703125 97.35546875 C-36.01256355 99.16984778 -36.01256355 99.16984778 -33 100 C-30.74514516 98.4888308 -28.71046722 96.96910135 -26.625 95.25 C-20.10841111 89.98316788 -15.05595684 86.68106801 -6.6875 85.3125 C-5.94693359 85.18294922 -5.20636719 85.05339844 -4.44335938 84.91992188 C-2.63047666 84.6041294 -0.81543149 84.30079417 1 84 C1.23511374 81.68247935 1.23511374 81.68247935 -1.34375 79.64453125 C-2.39065306 78.69477918 -3.44311531 77.75113186 -4.5 76.8125 C-5.05244385 76.31419678 -5.6048877 75.81589355 -6.17407227 75.30249023 C-9.68544945 72.14353136 -13.23886538 69.03417718 -16.80859375 65.94140625 C-20.33195986 62.81999278 -23.76885455 59.60535118 -27.22021484 56.40478516 C-30.73482029 53.15135213 -34.29608667 49.96591238 -37.91796875 46.83203125 C-41.13491793 44.00135739 -44.2797068 41.09232984 -47.43334961 38.19165039 C-51.45234699 34.49655143 -55.49928078 30.83397879 -59.5625 27.1875 C-62.08760867 24.92137684 -64.60616628 22.64809385 -67.125 20.375 C-67.94484375 19.6428125 -68.7646875 18.910625 -69.609375 18.15625 C-71.18028628 16.73934963 -72.73320373 15.30219231 -74.265625 13.84375 C-74.96171875 13.1940625 -75.6578125 12.544375 -76.375 11.875 C-77.28378906 11.00488281 -77.28378906 11.00488281 -78.2109375 10.1171875 C-79.91741754 8.81707823 -79.91741754 8.81707823 -81.8984375 9.08203125 C-84.69219824 10.30235425 -86.83853813 11.94328026 -89.25 13.8125 C-90.30839165 14.62396158 -91.36699739 15.43514398 -92.42578125 16.24609375 C-93.27970459 16.90520752 -93.27970459 16.90520752 -94.15087891 17.57763672 C-97.56141124 20.20105385 -100.99985492 22.78728303 -104.4375 25.375 C-105.11135742 25.88651611 -105.78521484 26.39803223 -106.47949219 26.92504883 C-109.88699817 29.49430153 -113.2787539 31.89201088 -117 34 C-115.58226538 30.45566346 -114.32387762 29.66193881 -111 28 C-110.75507813 27.43796875 -110.51015625 26.8759375 -110.2578125 26.296875 C-108.43494745 22.9681649 -105.67948827 20.73778235 -102.875 18.25 C-101.6978817 17.18898148 -100.52209977 16.12647848 -99.34765625 15.0625 C-98.77547363 14.54429687 -98.20329102 14.02609375 -97.61376953 13.4921875 C-94.79128509 10.88235014 -92.13389679 8.11536878 -89.48828125 5.328125 C-88 4 -88 4 -86 4 C-86 3.34 -86 2.68 -86 2 C-77.20438921 3.47204389 -68.5508043 5.43442477 -59.8828125 7.51953125 C-59.1820245 7.68797735 -58.4812365 7.85642345 -57.75921249 8.02997398 C-54.06302886 8.91972024 -50.36805026 9.81430527 -46.67382812 10.7121582 C-43.63279637 11.45018853 -40.58955909 12.17784514 -37.54394531 12.89672852 C-33.83798425 13.77152808 -30.13663233 14.66374767 -26.43789291 15.56857872 C-25.03679179 15.90830557 -23.63421159 16.24199466 -22.23016739 16.56934547 C-20.26939272 17.02787644 -18.31445294 17.51114319 -16.35986328 17.99536133 C-15.24942657 18.26246414 -14.13898987 18.52956696 -12.99490356 18.80476379 C-6.99247429 21.20027358 -4.53292211 25.70061684 -1 31 C-0.67 20.77 -0.34 10.54 0 0 Z " fill="#AB323D" transform="translate(292,142)"/>
<path d="M0 0 C4.6951853 0.47120139 6.77980492 2.26464714 10.125 5.5 C11.09412625 6.41902176 12.06554087 7.33563556 13.0390625 8.25 C13.53051758 8.71277344 14.02197266 9.17554688 14.52832031 9.65234375 C16.76988756 11.70500652 19.12988247 13.59847304 21.5 15.5 C25.28460334 18.55348679 28.92207537 21.70668301 32.5 25 C36.86769492 29.01605847 41.36849236 32.79385454 45.984375 36.51953125 C49.54670352 39.44968489 53.02467961 42.46765967 56.5 45.5 C61.64516543 49.98615651 66.85255291 54.37009168 72.16015625 58.6640625 C76.27186122 62.04618021 80.29790966 65.52630198 84.31860352 69.01586914 C86.81181535 71.17072921 89.25408062 73.16938708 92 75 C92 75.66 92 76.32 92 77 C92.99 77.33 93.98 77.66 95 78 C95 78.33 95 78.66 95 79 C77.60797663 80.54978426 77.60797663 80.54978426 70.375 74.625 C67.7734375 72.1640625 67.7734375 72.1640625 66 70 C66 69.34 66 68.68 66 68 C65.44570313 67.75378906 64.89140625 67.50757813 64.3203125 67.25390625 C56.56349092 63.06208853 50.00572303 56.14615419 43.51953125 50.2421875 C40.07468052 47.17653739 36.50149352 44.28400181 32.91796875 41.3828125 C29.74582004 38.79243671 26.61974005 36.15297469 23.5 33.5 C15.17782717 26.43574425 6.81791024 19.44288571 -2 13 C-2.82242188 13.70125 -3.64484375 14.4025 -4.4921875 15.125 C-10.41872024 20.16625635 -16.37916026 25.14205263 -22.4765625 29.9765625 C-26.35556807 33.08697254 -30.15918736 36.28640191 -33.97265625 39.4765625 C-37.81866713 42.68239867 -41.69536771 45.84967423 -45.57421875 49.015625 C-48.39821451 51.32575357 -51.20336348 53.6568721 -54 56 C-54.66 55.67 -55.32 55.34 -56 55 C-55.32324219 54.32582031 -54.64648438 53.65164063 -53.94921875 52.95703125 C-51.79195517 50.80128848 -49.65317936 48.62832562 -47.51953125 46.44921875 C-46.28393164 45.19523615 -45.04825327 43.94133117 -43.8125 42.6875 C-43.18408203 42.04232422 -42.55566406 41.39714844 -41.90820312 40.73242188 C-41.30556641 40.12333984 -40.70292969 39.51425781 -40.08203125 38.88671875 C-39.53780518 38.33201904 -38.9935791 37.77731934 -38.43286133 37.20581055 C-37 36 -37 36 -35 36 C-34.74863281 35.41089844 -34.49726563 34.82179688 -34.23828125 34.21484375 C-32.84544599 31.72355798 -31.3791428 30.37699586 -29.1875 28.5625 C-25.22965271 25.26301803 -21.65245592 21.68171752 -18.04223633 18.00756836 C-15.80226817 15.73095758 -13.55749493 13.45915305 -11.3125 11.1875 C-10.54099609 10.39923828 -9.76949219 9.61097656 -8.97460938 8.79882812 C-8.23662109 8.05439453 -7.49863281 7.30996094 -6.73828125 6.54296875 C-6.06837158 5.86258545 -5.39846191 5.18220215 -4.70825195 4.48120117 C-3 3 -3 3 -1 3 C-0.67 2.01 -0.34 1.02 0 0 Z " fill="#A8333F" transform="translate(405,223)"/>
<path d="M0 0 C2.81634147 1.28259827 4.86145525 2.61473607 7.03686523 4.80981445 C7.60102646 5.37412674 8.16518768 5.93843903 8.7464447 6.51985168 C9.64345848 7.43234932 9.64345848 7.43234932 10.55859375 8.36328125 C11.18476089 8.99227829 11.81092804 9.62127533 12.45606995 10.26933289 C14.45463254 12.27906716 16.44613995 14.29563129 18.4375 16.3125 C19.77362542 17.65866295 21.11020915 19.00437118 22.44726562 20.34960938 C24.91228168 22.83092933 27.37458974 25.31486912 29.83374023 27.80200195 C30.37231659 28.34571442 30.91089294 28.88942688 31.46578979 29.44961548 C32.89376314 30.89264315 34.31823974 32.33912879 35.74243164 33.78588867 C38.00796769 36.09225145 38.00796769 36.09225145 40.8125 38.1875 C41.534375 38.785625 42.25625 39.38375 43 40 C43 40.66 43 41.32 43 42 C43.66 42 44.32 42 45 42 C45 42.66 45 43.32 45 44 C45.639375 44.268125 46.27875 44.53625 46.9375 44.8125 C49 46 49 46 50 49 C52.00016466 50.20882096 52.00016466 50.20882096 54 51 C54 51.66 54 52.32 54 53 C49.77495817 51.27868666 46.68926255 48.28969941 43.3125 45.3125 C38.70368258 41.30320354 34.0567659 37.41135522 29.203125 33.69921875 C21.85269866 28.03000695 14.87648911 22.09805106 8.2890625 15.5546875 C6.12491643 13.78203686 6.12491643 13.78203686 3.5625 13.9453125 C0.1952894 15.33120711 -2.07395378 17.48306318 -4.625 20 C-5.69046564 21.01408032 -6.75821728 22.02576367 -7.828125 23.03515625 C-8.36115234 23.53934082 -8.89417969 24.04352539 -9.44335938 24.56298828 C-11.67431428 26.62249277 -14.01177889 28.53224037 -16.375 30.4375 C-25.61429127 37.88982233 -34.53394783 45.72322728 -43.5 53.5 C-56.5969461 64.8597346 -56.5969461 64.8597346 -60.01611328 67.73535156 C-62.70604781 69.99839691 -65.26467264 72.26392285 -67.7578125 74.75 C-73.31089689 80.05443882 -77.14886909 81.71158301 -84.6875 81.5625 C-87.141583 81.4472333 -89.55408127 81.24858145 -92 81 C-90.73968523 77.21905568 -89.11710652 76.25856275 -86 73.8125 C-81.42779752 70.17619816 -77.05942587 66.40594118 -72.77734375 62.43359375 C-71 61 -71 61 -69 61 C-69 60.34 -69 59.68 -69 59 C-67.51261765 57.64617851 -65.95569449 56.36860114 -64.375 55.125 C-59.93435697 51.57021415 -55.56119903 47.96069756 -51.25 44.25 C-50.66750488 43.74895752 -50.08500977 43.24791504 -49.48486328 42.73168945 C-47.65533631 41.15589068 -45.82757823 39.57805824 -44 38 C-43.36449219 37.45230957 -42.72898438 36.90461914 -42.07421875 36.34033203 C-35.91556745 31.03173505 -29.76455796 25.72210573 -23.75 20.25 C-19.4981886 16.39370594 -15.08996344 12.76307141 -10.62890625 9.15234375 C-7.00849313 6.18823137 -3.4929259 3.11260732 0 0 Z " fill="#A0333F" transform="translate(92,208)"/>
<path d="M0 0 C3.48972003 1.49530324 5.73465395 3.49191662 8.40136719 6.17431641 C9.2619574 7.03505768 10.12254761 7.89579895 11.00921631 8.78262329 C11.92914368 9.71287323 12.84907104 10.64312317 13.796875 11.6015625 C14.75479097 12.56321086 15.71315114 13.52441694 16.67193604 14.48519897 C19.18835125 17.00923282 21.69870107 19.53921591 24.20782471 22.07049561 C26.77162441 24.6547919 29.34112918 27.23340199 31.91015625 29.8125 C36.94569457 34.86945697 41.9748456 39.93272256 47 45 C42.85386243 45 41.90191281 43.3321872 38.9375 40.5 C35.37753996 37.1531049 31.78852949 33.95373354 27.9375 30.9375 C23.65318513 27.57221798 19.62839732 23.99147466 15.60546875 20.3203125 C11.19622959 16.39364374 6.60064919 12.69976161 2 9 C-2.78559324 11.487427 -6.11081954 14.91979245 -9.8125 18.75 C-14.21804996 23.23844545 -18.62965236 27.61782316 -23.44921875 31.66796875 C-25.04796055 33.04119534 -26.52812851 34.49255458 -28 36 C-29.48199902 35.55090939 -30.96055236 35.09043436 -32.4375 34.625 C-33.67306641 34.24214844 -33.67306641 34.24214844 -34.93359375 33.8515625 C-37 33 -37 33 -38 31 C-37.14019531 30.33355469 -36.28039062 29.66710937 -35.39453125 28.98046875 C-28.69354103 23.76359687 -22.09832459 18.45673856 -15.64282227 12.9387207 C-11.44295087 9.35393939 -7.16052497 5.88493102 -2.828125 2.4609375 C-1.09166198 1.12864522 -1.09166198 1.12864522 0 0 Z " fill="#82373F" transform="translate(212,164)"/>
<path d="M0 0 C10.19885617 1.61904865 20.17064655 4.1541186 30.1875 6.625 C31.91984862 7.04977804 33.65226997 7.47425956 35.38476562 7.8984375 C39.59068989 8.92887597 43.79561034 9.96331864 48 11 C47.67 12.32 47.34 13.64 47 15 C46.30132812 14.855625 45.60265625 14.71125 44.8828125 14.5625 C43.51769531 14.2840625 43.51769531 14.2840625 42.125 14 C41.22007812 13.814375 40.31515625 13.62875 39.3828125 13.4375 C36.23513145 12.85956512 33.53878894 13.13842412 30.375 13.5 C29.55773437 13.5928125 28.74046875 13.685625 27.8984375 13.78125 C27.27195313 13.8534375 26.64546875 13.925625 26 14 C26 14.66 26 15.32 26 16 C25.34 16 24.68 16 24 16 C24.9977758 18.99332739 25.7522025 19.94766315 28 22 C27.67 22.66 27.34 23.32 27 24 C27.66 24 28.32 24 29 24 C30.02104551 24.97850195 31.0206121 25.97980427 32 27 C32.66 27.33 33.32 27.66 34 28 C33.505 29.485 33.505 29.485 33 31 C28.77245263 27.35684888 24.60433556 23.65532518 20.49902344 19.87524414 C18.9492685 18.44833563 17.39495907 17.02653095 15.83984375 15.60546875 C14.153553 14.05834917 12.4756294 12.50189483 10.81640625 10.92578125 C8.87014767 9.07333312 8.87014767 9.07333312 6 7 C2.17459208 7.24913371 -0.30295723 9.52813026 -3.25 11.8125 C-4.30839165 12.62396158 -5.36699739 13.43514398 -6.42578125 14.24609375 C-6.99506348 14.68550293 -7.5643457 15.12491211 -8.15087891 15.57763672 C-11.56141124 18.20105385 -14.99985492 20.78728303 -18.4375 23.375 C-19.11135742 23.88651611 -19.78521484 24.39803223 -20.47949219 24.92504883 C-23.88699817 27.49430153 -27.2787539 29.89201088 -31 32 C-29.58226538 28.45566346 -28.32387762 27.66193881 -25 26 C-24.75507813 25.43796875 -24.51015625 24.8759375 -24.2578125 24.296875 C-22.43494745 20.9681649 -19.67948827 18.73778235 -16.875 16.25 C-15.6978817 15.18898148 -14.52209977 14.12647848 -13.34765625 13.0625 C-12.77547363 12.54429687 -12.20329102 12.02609375 -11.61376953 11.4921875 C-8.79128509 8.88235014 -6.13389679 6.11536878 -3.48828125 3.328125 C-2 2 -2 2 0 2 C0 1.34 0 0.68 0 0 Z " fill="#A4333F" transform="translate(206,144)"/>
<path d="M0 0 C2.85239955 0.85601058 5.19416541 1.99388654 7.79516602 3.44311523 C9.23279297 4.23685547 9.23279297 4.23685547 10.69946289 5.04663086 C11.68881836 5.60157227 12.67817383 6.15651367 13.69750977 6.72827148 C15.66730524 7.82118202 17.63734769 8.91364757 19.60766602 10.00561523 C20.47657471 10.49151123 21.3454834 10.97740723 22.24072266 11.47802734 C24.35021505 12.63462371 26.47490686 13.73246184 28.63500977 14.79077148 C28.63500977 17.43077148 28.63500977 20.07077148 28.63500977 22.79077148 C24.72627835 22.20323592 21.91508978 21.01946742 18.51000977 19.03295898 C17.55610352 18.49026367 16.60219727 17.94756836 15.61938477 17.38842773 C13.62641027 16.23803277 11.63682138 15.08175288 9.65063477 13.91967773 C8.21977539 13.10950195 8.21977539 13.10950195 6.76000977 12.28295898 C5.89633789 11.78135254 5.03266602 11.27974609 4.14282227 10.76293945 C1.12472052 9.59295492 -0.32402614 9.77183458 -3.36499023 10.79077148 C-6.04093912 12.843894 -6.04093912 12.843894 -8.55249023 15.35327148 C-13.16998243 19.79077148 -13.16998243 19.79077148 -15.36499023 19.79077148 C-16.01317528 16.27616812 -16.19401989 13.28560308 -15.36499023 9.79077148 C-12.4296701 6.50407786 -9.0586051 4.16399175 -5.36499023 1.79077148 C-2.36499023 -0.20922852 -2.36499023 -0.20922852 0 0 Z " fill="#A83340" transform="translate(293.364990234375,129.209228515625)"/>
<path d="M0 0 C6.27 0 12.54 0 19 0 C19 6.27 19 12.54 19 19 C12.73 19 6.46 19 0 19 C0 12.73 0 6.46 0 0 Z " fill="#A33742" transform="translate(72,281)"/>
<path d="M0 0 C6.27 0 12.54 0 19 0 C19 6.27 19 12.54 19 19 C12.73 19 6.46 19 0 19 C0 12.73 0 6.46 0 0 Z " fill="#AA333E" transform="translate(413,269)"/>
<path d="M0 0 C0.74886475 0.00523682 1.49772949 0.01047363 2.26928711 0.01586914 C3.36188843 0.01961548 3.36188843 0.01961548 4.4765625 0.0234375 C5.40718506 0.0325415 6.33780762 0.04164551 7.29663086 0.05102539 C11.72069336 0.08196289 11.72069336 0.08196289 16.23413086 0.11352539 C16.23413086 6.38352539 16.23413086 12.65352539 16.23413086 19.11352539 C9.96413086 19.11352539 3.69413086 19.11352539 -2.76586914 19.11352539 C-2.78649414 16.16415039 -2.80711914 13.21477539 -2.82836914 10.17602539 C-2.83747314 9.24540283 -2.84657715 8.31478027 -2.85595703 7.35595703 C-2.85845459 6.62755615 -2.86095215 5.89915527 -2.86352539 5.14868164 C-2.86876221 4.39981689 -2.87399902 3.65095215 -2.87939453 2.87939453 C-2.72446543 0.46949736 -2.40989717 0.1549291 0 0 Z " fill="#AA323E" transform="translate(394.765869140625,289.886474609375)"/>
<path d="M0 0 C2.949375 -0.020625 5.89875 -0.04125 8.9375 -0.0625 C9.86812256 -0.071604 10.79874512 -0.08070801 11.75756836 -0.09008789 C12.48596924 -0.09258545 13.21437012 -0.09508301 13.96484375 -0.09765625 C14.7137085 -0.10289307 15.46257324 -0.10812988 16.23413086 -0.11352539 C18 0 18 0 19 1 C19.08631874 2.34267413 19.10706473 3.68974322 19.09765625 5.03515625 C19.09515869 5.76355713 19.09266113 6.49195801 19.09008789 7.24243164 C19.08098389 8.1730542 19.07187988 9.10367676 19.0625 10.0625 C19.041875 13.011875 19.02125 15.96125 19 19 C12.73 19 6.46 19 0 19 C0 12.73 0 6.46 0 0 Z " fill="#9F3540" transform="translate(413,290)"/>
<path d="M0 0 C2.949375 -0.020625 5.89875 -0.04125 8.9375 -0.0625 C9.86812256 -0.071604 10.79874512 -0.08070801 11.75756836 -0.09008789 C12.48596924 -0.09258545 13.21437012 -0.09508301 13.96484375 -0.09765625 C14.7137085 -0.10289307 15.46257324 -0.10812988 16.23413086 -0.11352539 C18 0 18 0 19 1 C19.08631874 2.34267413 19.10706473 3.68974322 19.09765625 5.03515625 C19.09515869 5.76355713 19.09266113 6.49195801 19.09008789 7.24243164 C19.08098389 8.1730542 19.07187988 9.10367676 19.0625 10.0625 C19.041875 13.011875 19.02125 15.96125 19 19 C12.73 19 6.46 19 0 19 C0 12.73 0 6.46 0 0 Z " fill="#A9333F" transform="translate(93,281)"/>
<path d="M0 0 C0.74886475 0.00523682 1.49772949 0.01047363 2.26928711 0.01586914 C3.36188843 0.01961548 3.36188843 0.01961548 4.4765625 0.0234375 C5.40718506 0.0325415 6.33780762 0.04164551 7.29663086 0.05102539 C11.72069336 0.08196289 11.72069336 0.08196289 16.23413086 0.11352539 C16.23413086 6.38352539 16.23413086 12.65352539 16.23413086 19.11352539 C9.96413086 19.11352539 3.69413086 19.11352539 -2.76586914 19.11352539 C-2.78649414 16.16415039 -2.80711914 13.21477539 -2.82836914 10.17602539 C-2.83747314 9.24540283 -2.84657715 8.31478027 -2.85595703 7.35595703 C-2.85845459 6.62755615 -2.86095215 5.89915527 -2.86352539 5.14868164 C-2.86876221 4.39981689 -2.87399902 3.65095215 -2.87939453 2.87939453 C-2.72446543 0.46949736 -2.40989717 0.1549291 0 0 Z " fill="#AA333D" transform="translate(394.765869140625,268.886474609375)"/>
<path d="M0 0 C2.949375 -0.020625 5.89875 -0.04125 8.9375 -0.0625 C9.86812256 -0.071604 10.79874512 -0.08070801 11.75756836 -0.09008789 C12.48596924 -0.09258545 13.21437012 -0.09508301 13.96484375 -0.09765625 C14.7137085 -0.10289307 15.46257324 -0.10812988 16.23413086 -0.11352539 C18 0 18 0 19 1 C19.08631874 2.34267413 19.10706473 3.68974322 19.09765625 5.03515625 C19.09515869 5.76355713 19.09266113 6.49195801 19.09008789 7.24243164 C19.08098389 8.1730542 19.07187988 9.10367676 19.0625 10.0625 C19.041875 13.011875 19.02125 15.96125 19 19 C12.73 19 6.46 19 0 19 C0 12.73 0 6.46 0 0 Z " fill="#A53641" transform="translate(93,260)"/>
<path d="M0 0 C2.949375 -0.020625 5.89875 -0.04125 8.9375 -0.0625 C9.86812256 -0.071604 10.79874512 -0.08070801 11.75756836 -0.09008789 C12.48596924 -0.09258545 13.21437012 -0.09508301 13.96484375 -0.09765625 C14.7137085 -0.10289307 15.46257324 -0.10812988 16.23413086 -0.11352539 C18 0 18 0 19 1 C19.08631874 2.34267413 19.10706473 3.68974322 19.09765625 5.03515625 C19.09515869 5.76355713 19.09266113 6.49195801 19.09008789 7.24243164 C19.08098389 8.1730542 19.07187988 9.10367676 19.0625 10.0625 C19.041875 13.011875 19.02125 15.96125 19 19 C12.73 19 6.46 19 0 19 C0 12.73 0 6.46 0 0 Z " fill="#A7333F" transform="translate(72,260)"/>
<path d="M0 0 C2.475 0.495 2.475 0.495 5 1 C5 5 5 5 2.8125 7.625 C0.17298518 9.85392363 -1.80380048 10.84581684 -5 12 C-5.33 12.66 -5.66 13.32 -6 14 C-6.33 14.33 -6.66 14.66 -7 15 C-7.86625 15.9590625 -7.86625 15.9590625 -8.75 16.9375 C-11 19 -11 19 -13.5 19.875 C-16.97559991 21.43901996 -18.04066146 23.79974705 -20 27 C-22.62096199 30.05778899 -25.27360929 31.85708686 -29.359375 32.1953125 C-30.14828125 32.17210937 -30.9371875 32.14890625 -31.75 32.125 C-32.94882812 32.09792969 -32.94882812 32.09792969 -34.171875 32.0703125 C-34.77515625 32.04710937 -35.3784375 32.02390625 -36 32 C-36 31.01 -36 30.02 -36 29 C-35.071875 28.87625 -35.071875 28.87625 -34.125 28.75 C-31.84339318 28.22234443 -31.84339318 28.22234443 -31.0859375 26.15625 C-29.8657951 23.73352121 -28.56797621 22.48499699 -26.5 20.75 C-25.8915625 20.22921875 -25.283125 19.7084375 -24.65625 19.171875 C-23 18 -23 18 -21 18 C-21 17.34 -21 16.68 -21 16 C-19.02 15.67 -17.04 15.34 -15 15 C-14.896875 14.21625 -14.79375 13.4325 -14.6875 12.625 C-14 10 -14 10 -11 8 C-11.33 7.34 -11.66 6.68 -12 6 C-8.49223216 4.39644899 -5.85645121 3.77963136 -2 4 C-1.34 2.68 -0.68 1.36 0 0 Z " fill="#A9333F" transform="translate(42,255)"/>
<path d="M0 0 C2.81634147 1.28259827 4.86145525 2.61473607 7.03686523 4.80981445 C7.60102646 5.37412674 8.16518768 5.93843903 8.7464447 6.51985168 C9.64345848 7.43234932 9.64345848 7.43234932 10.55859375 8.36328125 C11.18476089 8.99227829 11.81092804 9.62127533 12.45606995 10.26933289 C14.45463254 12.27906716 16.44613995 14.29563129 18.4375 16.3125 C19.77362542 17.65866295 21.11020915 19.00437118 22.44726562 20.34960938 C24.91228168 22.83092933 27.37458974 25.31486912 29.83374023 27.80200195 C30.37231659 28.34571442 30.91089294 28.88942688 31.46578979 29.44961548 C32.89376314 30.89264315 34.31823974 32.33912879 35.74243164 33.78588867 C38.00796769 36.09225145 38.00796769 36.09225145 40.8125 38.1875 C41.534375 38.785625 42.25625 39.38375 43 40 C43 40.66 43 41.32 43 42 C43.66 42 44.32 42 45 42 C45 42.66 45 43.32 45 44 C45.639375 44.268125 46.27875 44.53625 46.9375 44.8125 C49 46 49 46 50 49 C52.00016466 50.20882096 52.00016466 50.20882096 54 51 C54 51.66 54 52.32 54 53 C49.77495817 51.27868666 46.68926255 48.28969941 43.3125 45.3125 C38.7114173 41.30993213 34.07392163 37.42235024 29.2265625 33.71875 C26.51285439 31.62395778 23.8479264 29.47453517 21.1875 27.3125 C20.29417969 26.58675781 19.40085938 25.86101562 18.48046875 25.11328125 C16.18978164 23.16168798 14.01734436 21.23365634 12 19 C12 18.34 12 17.68 12 17 C13.32 17 14.64 17 16 17 C15.01 16.34 14.02 15.68 13 15 C13 14.34 13 13.68 13 13 C12.34 13 11.68 13 11 13 C9.63823078 11.35648543 8.31037934 9.68477344 7 8 C5.35216394 6.31471312 3.68997323 4.64302953 2 3 C-2.74005651 5.00540852 -6.44744861 8.39893138 -10 12.0625 C-12.44455554 14.43066318 -15.16311144 16.12886073 -18 18 C-20.43638232 20.10032958 -20.94893544 20.84680631 -22 24 C-24.0625 24.6875 -24.0625 24.6875 -26 25 C-26 25.66 -26 26.32 -26 27 C-28.375 28.6875 -28.375 28.6875 -31 30 C-31.66 29.67 -32.32 29.34 -33 29 C-25.68061597 22.08665479 -18.34756709 15.31079081 -10.48828125 9.01171875 C-6.90059962 6.11115982 -3.44386061 3.06888439 0 0 Z " fill="#84353F" transform="translate(92,208)"/>
<path d="M0 0 C5.94 0 11.88 0 18 0 C18.020625 2.784375 18.04125 5.56875 18.0625 8.4375 C18.071604 9.31591553 18.08070801 10.19433105 18.09008789 11.09936523 C18.09723091 13.06645974 18.05031893 15.03353621 18 17 C17 18 17 18 13.5 18.125 C10 18 10 18 9 17 C8.85806663 13.99668982 8.95763622 11.00782866 9 8 C8.67 11.3 8.34 14.6 8 18 C5.36 18 2.72 18 0 18 C0 12.06 0 6.12 0 0 Z " fill="#9A3743" transform="translate(204,185)"/>
<path d="M0 0 C0.99 0.495 0.99 0.495 2 1 C-2.06074088 6.8526991 -6.55504015 12.7071529 -13.64955521 14.77064133 C-21.33090665 15.95817367 -29.099449 15.69002295 -36.84765625 15.55859375 C-39.3529943 15.56186745 -41.85833058 15.57058782 -44.3636322 15.58448792 C-50.25622579 15.60299634 -56.14613596 15.56284378 -62.03831333 15.49471384 C-68.07412928 15.428636 -74.10884024 15.43280144 -80.1449213 15.44666958 C-86.54588018 15.46022588 -92.94671336 15.45112111 -99.34765625 15.43359375 C-101.17897441 15.42865308 -101.17897441 15.42865308 -103.04728889 15.42361259 C-106.49146946 15.40829003 -109.9351348 15.37790846 -113.37915039 15.34155273 C-114.40097916 15.33767044 -115.42280792 15.33378815 -116.4756012 15.32978821 C-117.41311218 15.31666595 -118.35062317 15.3035437 -119.31654358 15.2900238 C-120.12927262 15.28235709 -120.94200167 15.27469038 -121.77935886 15.26679134 C-124 15 -124 15 -128 13 C-124.7 10.03 -121.4 7.06 -118 4 C-117.34 4.33 -116.68 4.66 -116 5 C-116.495 5.804375 -116.99 6.60875 -117.5 7.4375 C-119.08419653 9.64896185 -119.08419653 9.64896185 -119 11 C-105.00500624 11.11685348 -91.01008824 11.20466524 -77.01470661 11.25906086 C-70.51622422 11.28516666 -64.0180693 11.32058392 -57.51977539 11.37719727 C-51.24983179 11.43148006 -44.98020338 11.46141313 -38.71004295 11.47438622 C-36.31658146 11.48363265 -33.92313744 11.50168863 -31.52980995 11.52865028 C-28.18005572 11.56488937 -24.83160782 11.56994727 -21.48168945 11.56762695 C-19.99383438 11.59459152 -19.99383438 11.59459152 -18.47592163 11.62210083 C-12.75698001 11.58062835 -12.75698001 11.58062835 -7.95744324 8.57707214 C-7.31148697 7.72663834 -6.6655307 6.87620453 -6 6 C-3 3 -3 3 0 0 Z " fill="#9E3542" transform="translate(309,297)"/>
<path d="M0 0 C5.55117309 3.7697078 10.24142905 8.10776422 14.9309082 12.8996582 C17.53359424 15.55271591 20.16900304 18.09249234 23 20.5 C26.84884905 23.78098607 30.37859048 27.34955494 33.92700195 30.9465332 C37.18379654 34.23049132 40.55766987 37.29725152 44.07421875 40.296875 C47.54386825 43.36536827 50.76502448 46.68759155 54 50 C50.23829569 50 49.52973542 49.07115626 46.6875 46.6875 C45.79417969 45.95144531 44.90085937 45.21539062 43.98046875 44.45703125 C42.99691406 43.64621094 42.01335937 42.83539063 41 42 C38.84357925 40.27854492 36.6724813 38.57612019 34.5 36.875 C33.92113037 36.42044434 33.34226074 35.96588867 32.74584961 35.49755859 C28.54167676 32.19882198 24.32401827 28.91762882 20.10327148 25.64013672 C16.39944033 22.76360595 12.69878201 19.88301954 9 17 C8.42040527 16.54866699 7.84081055 16.09733398 7.24365234 15.63232422 C5.80487663 14.5092142 4.37092828 13.37992701 2.9375 12.25 C2.18339844 11.65703125 1.42929687 11.0640625 0.65234375 10.453125 C-1 9 -1 9 -2 7 C2.24822374 7.47202486 4.19989709 9.96655518 7 13 C7.33 12.01 7.66 11.02 8 10 C7.608125 9.608125 7.21625 9.21625 6.8125 8.8125 C6.214375 8.214375 5.61625 7.61625 5 7 C4.113125 6.154375 3.22625 5.30875 2.3125 4.4375 C0 2 0 2 0 0 Z " fill="#8F3142" transform="translate(418,205)"/>
<path d="M0 0 C0 0.99 0 1.98 0 3 C-1.51171875 4.47265625 -1.51171875 4.47265625 -3.6875 6.0625 C-4.51378906 6.67867187 -5.34007812 7.29484375 -6.19140625 7.9296875 C-7.58166016 8.95449219 -7.58166016 8.95449219 -9 10 C-11.04539018 11.55762256 -13.08682491 13.1204482 -15.125 14.6875 C-15.67124023 15.10660645 -16.21748047 15.52571289 -16.78027344 15.95751953 C-21.68142422 19.72839344 -26.51033145 23.58618026 -31.33129883 27.45874023 C-36.21447828 31.37949993 -41.13013425 35.25684299 -46.05981445 39.11889648 C-50.36893969 42.49708748 -54.64978246 45.9090398 -58.9140625 49.34375 C-60.91640471 50.93362471 -62.94690735 52.47643803 -65 54 C-65.66 53.67 -66.32 53.34 -67 53 C-66.00363813 51.97561545 -65.00260713 50.95577287 -64 49.9375 C-63.443125 49.36902344 -62.88625 48.80054688 -62.3125 48.21484375 C-60.33399106 46.31988671 -58.31792271 44.51792477 -56.25 42.72265625 C-52.06572225 39.0851435 -48.0246487 35.31241137 -44 31.5 C-38.76735962 26.54329964 -33.45086748 21.71583529 -28 17 C-27.1646875 16.26910156 -26.329375 15.53820312 -25.46875 14.78515625 C-23.64583333 13.19010417 -21.82291667 11.59505208 -20 10 C-19.34 11.32 -18.68 12.64 -18 14 C-17.67 13.34 -17.34 12.68 -17 12 C-15.515 11.566875 -15.515 11.566875 -14 11.125 C-12.515 10.568125 -12.515 10.568125 -11 10 C-10.6278958 8.67696283 -10.29369827 7.34262065 -10 6 C-8.35965807 5.27095914 -6.68698082 4.61344757 -5 4 C-3.29705213 2.71332828 -1.62053812 1.38903267 0 0 Z " fill="#913240" transform="translate(92,189)"/>
<path d="M0 0 C8.15156551 1.37481474 16.15974533 3.15921122 24.1875 5.125 C25.90163086 5.54072266 25.90163086 5.54072266 27.65039062 5.96484375 C30.43428684 6.64043363 33.21745713 7.3188617 36 8 C31.77135446 10.4534564 28.61093967 9.72731873 24 8.75 C22.93265625 8.54697266 22.93265625 8.54697266 21.84375 8.33984375 C18.25834717 7.62410102 15.2220436 6.70052301 12 5 C11.01 5 10.02 5 9 5 C9 4.34 9 3.68 9 3 C8.34 3.33 7.68 3.66 7 4 C7.66 4.66 8.32 5.32 9 6 C9.99 6 10.98 6 12 6 C11.67 7.32 11.34 8.64 11 10 C10.4225 9.690625 9.845 9.38125 9.25 9.0625 C6.24369338 7.58802107 6.24369338 7.58802107 3 7 C0.17197442 8.68653517 0.17197442 8.68653517 -2.75 11.1875 C-3.90003354 12.11063232 -5.05112598 13.03244662 -6.203125 13.953125 C-7.11868164 14.69272461 -7.11868164 14.69272461 -8.05273438 15.44726562 C-11.4815974 18.18141418 -14.99146798 20.80691052 -18.5 23.4375 C-19.50498535 24.19873169 -19.50498535 24.19873169 -20.53027344 24.9753418 C-23.92090194 27.52599974 -27.30190472 29.9020421 -31 32 C-29.58226538 28.45566346 -28.32387762 27.66193881 -25 26 C-24.75507813 25.43796875 -24.51015625 24.8759375 -24.2578125 24.296875 C-22.43494745 20.9681649 -19.67948827 18.73778235 -16.875 16.25 C-15.6978817 15.18898148 -14.52209977 14.12647848 -13.34765625 13.0625 C-12.77547363 12.54429687 -12.20329102 12.02609375 -11.61376953 11.4921875 C-8.79128509 8.88235014 -6.13389679 6.11536878 -3.48828125 3.328125 C-2 2 -2 2 0 2 C0 1.34 0 0.68 0 0 Z " fill="#8F3543" transform="translate(206,144)"/>
<path d="M0 0 C0.86625 0.26296875 1.7325 0.5259375 2.625 0.796875 C0.16220198 5.72247105 -4.40998238 11.75511205 -9.6875 13.609375 C-10.244375 13.67125 -10.80125 13.733125 -11.375 13.796875 C-11.49681641 14.90095703 -11.49681641 14.90095703 -11.62109375 16.02734375 C-12.54194738 19.41016876 -13.89829267 20.73138718 -16.4375 23.109375 C-17.17097656 23.80675781 -17.90445313 24.50414062 -18.66015625 25.22265625 C-19.50900391 26.00189453 -19.50900391 26.00189453 -20.375 26.796875 C-21.85699902 26.34778439 -23.33555236 25.88730936 -24.8125 25.421875 C-26.04806641 25.03902344 -26.04806641 25.03902344 -27.30859375 24.6484375 C-29.375 23.796875 -29.375 23.796875 -30.375 21.796875 C-29.51519531 21.13042969 -28.65539062 20.46398437 -27.76953125 19.77734375 C-26.57531528 18.84661785 -25.38132206 17.9156061 -24.1875 16.984375 C-23.55908203 16.49678711 -22.93066406 16.00919922 -22.28320312 15.50683594 C-19.02040125 12.95440384 -15.83772113 10.35781173 -12.76171875 7.58203125 C-12.19155029 7.07325439 -11.62138184 6.56447754 -11.03393555 6.0402832 C-9.94783776 5.06255544 -8.87438154 4.0705546 -7.81567383 3.06323242 C-5.00350773 0.54794922 -3.84284335 -0.23128224 0 0 Z " fill="#A73440" transform="translate(204.375,173.203125)"/>
<path d="M0 0 C0.66 0.33 1.32 0.66 2 1 C0.88200014 2.33920838 -0.24461897 3.67122556 -1.375 5 C-2.00148438 5.7425 -2.62796875 6.485 -3.2734375 7.25 C-3.84320313 7.8275 -4.41296875 8.405 -5 9 C-5.66 9 -6.32 9 -7 9 C-7.33 9.99 -7.66 10.98 -8 12 C-8.845625 12.66 -9.69125 13.32 -10.5625 14 C-11.366875 14.66 -12.17125 15.32 -13 16 C-13 16.99 -13 17.98 -13 19 C-11.68 18.34 -10.36 17.68 -9 17 C-16.56933962 24.63692301 -24.41340227 31.69240305 -32.99291992 38.15649414 C-39.2038765 42.85665245 -45.09895578 47.91988665 -51 53 C-51.66 52.67 -52.32 52.34 -53 52 C-52.32324219 51.32582031 -51.64648438 50.65164063 -50.94921875 49.95703125 C-48.79195517 47.80128848 -46.65317936 45.62832562 -44.51953125 43.44921875 C-43.28393164 42.19523615 -42.04825327 40.94133117 -40.8125 39.6875 C-40.18408203 39.04232422 -39.55566406 38.39714844 -38.90820312 37.73242188 C-38.30556641 37.12333984 -37.70292969 36.51425781 -37.08203125 35.88671875 C-36.53780518 35.33201904 -35.9935791 34.77731934 -35.43286133 34.20581055 C-34 33 -34 33 -32 33 C-31.74863281 32.41089844 -31.49726563 31.82179688 -31.23828125 31.21484375 C-29.84544599 28.72355798 -28.3791428 27.37699586 -26.1875 25.5625 C-22.94273455 22.85748277 -19.967196 20.00875336 -17 17 C-15.59851621 15.59679681 -14.19608484 14.19453973 -12.79296875 12.79296875 C-11.66665039 11.66665039 -11.66665039 11.66665039 -10.51757812 10.51757812 C-7.01171875 7.01171875 -3.50585938 3.50585938 0 0 Z " fill="#80343B" transform="translate(402,226)"/>
<path d="M0 0 C3.63589887 1.59124045 6.40066524 3.8393904 9.4375 6.375 C13.59304186 9.83151011 13.59304186 9.83151011 17.84765625 13.1640625 C18.55792969 13.76992188 19.26820313 14.37578125 20 15 C20 15.66 20 16.32 20 17 C20.99 17.33 21.98 17.66 23 18 C23 18.33 23 18.66 23 19 C5.60797663 20.54978426 5.60797663 20.54978426 -1.625 14.625 C-4.2265625 12.1640625 -4.2265625 12.1640625 -6 10 C-6 9.34 -6 8.68 -6 8 C-4.68 8.33 -3.36 8.66 -2 9 C-2 9.66 -2 10.32 -2 11 C-1.38125 11.309375 -0.7625 11.61875 -0.125 11.9375 C1.25 12.625 2.625 13.3125 4 14 C4.33 13.34 4.66 12.68 5 12 C6.32 12.33 7.64 12.66 9 13 C7.85516311 7.65742785 5.61025638 5.42552588 1.4609375 2.19921875 C0.97882813 1.80347656 0.49671875 1.40773438 0 1 C0 0.67 0 0.34 0 0 Z " fill="#A8333C" transform="translate(477,283)"/>
<path d="M0 0 C1.32 0 2.64 0 4 0 C4 0.99 4 1.98 4 3 C5.32 3 6.64 3 8 3 C8.33 4.65 8.66 6.3 9 8 C9.99 7.34 10.98 6.68 12 6 C12.33 7.32 12.66 8.64 13 10 C13.556875 10.12375 14.11375 10.2475 14.6875 10.375 C17.22114364 11.05976855 19.57921032 11.99133763 22 13 C21 16 20 19 19 22 C15.78336707 21.04370372 14.30082343 20.43966501 12.375 17.625 C11.694375 16.325625 11.694375 16.325625 11 15 C9.53228729 12.73545927 9.53228729 12.73545927 8 11 C7.34 11 6.68 11 6 11 C6 10.01 6 9.02 6 8 C4.68 8 3.36 8 2 8 C2 7.34 2 6.68 2 6 C1.34 6 0.68 6 0 6 C-0.38218767 4.34385343 -0.71395102 2.67542976 -1 1 C-0.67 0.67 -0.34 0.34 0 0 Z " fill="#AB323C" transform="translate(406,228)"/>
<path d="M0 0 C0.74886475 0.00523682 1.49772949 0.01047363 2.26928711 0.01586914 C3.36188843 0.01961548 3.36188843 0.01961548 4.4765625 0.0234375 C5.40718506 0.0325415 6.33780762 0.04164551 7.29663086 0.05102539 C11.72069336 0.08196289 11.72069336 0.08196289 16.23413086 0.11352539 C16.23413086 6.38352539 16.23413086 12.65352539 16.23413086 19.11352539 C9.96413086 19.11352539 3.69413086 19.11352539 -2.76586914 19.11352539 C-2.78649414 16.16415039 -2.80711914 13.21477539 -2.82836914 10.17602539 C-2.83747314 9.24540283 -2.84657715 8.31478027 -2.85595703 7.35595703 C-2.85845459 6.62755615 -2.86095215 5.89915527 -2.86352539 5.14868164 C-2.86876221 4.39981689 -2.87399902 3.65095215 -2.87939453 2.87939453 C-2.72446543 0.46949736 -2.40989717 0.1549291 0 0 Z M-0.76586914 3.11352539 C-0.83830967 5.13316738 -0.84964102 7.15519663 -0.82836914 9.17602539 C-0.8193457 10.28075195 -0.81032227 11.38547852 -0.80102539 12.52368164 C-0.78942383 13.37833008 -0.77782227 14.23297852 -0.76586914 15.11352539 C4.36332272 17.21780923 8.79521436 17.33108205 14.23413086 17.11352539 C14.42803815 14.80155384 14.61409452 12.48892249 14.79663086 10.17602539 C14.90104492 8.88825195 15.00545898 7.60047852 15.11303711 6.27368164 C15.15299805 5.23083008 15.19295898 4.18797852 15.23413086 3.11352539 C14.1010033 1.75491646 14.1010033 1.75491646 11.10913086 1.98071289 C9.83038086 1.98329102 8.55163086 1.98586914 7.23413086 1.98852539 C5.95538086 1.98594727 4.67663086 1.98336914 3.35913086 1.98071289 C0.36725842 1.75491646 0.36725842 1.75491646 -0.76586914 3.11352539 Z " fill="#8D3D48" transform="translate(394.765869140625,289.886474609375)"/>
<path d="M0 0 C1.39973958 1.20442708 2.79947917 2.40885417 4.19921875 3.61328125 C5.99931864 5.0754567 5.99931864 5.0754567 8.21289062 6.19921875 C11.73807142 8.47687586 14.46367694 11.2147973 17.39453125 14.19921875 C17.98674973 14.79426712 18.5789682 15.38931549 19.18913269 16.00239563 C21.06835999 17.89276401 22.94048955 19.78998729 24.8125 21.6875 C26.09003154 22.97506918 27.36802154 24.26218365 28.64648438 25.54882812 C31.76965543 28.69397895 34.88648219 31.8452939 38 35 C33.85386243 35 32.90191281 33.3321872 29.9375 30.5 C26.37753996 27.1531049 22.78852949 23.95373354 18.9375 20.9375 C11.38920005 14.97578539 4.21313048 9.16723775 -1 1 C-0.67 0.67 -0.34 0.34 0 0 Z " fill="#983846" transform="translate(221,174)"/>
<path d="M0 0 C7.53469456 3.46970133 13.79737085 9.58919584 20 15 C22.64107354 12.53258609 23.79641403 10.42559084 25 7 C27.99220268 8.36370299 30.29026529 9.94908083 32.75 12.125 C33.67039062 12.93324219 33.67039062 12.93324219 34.609375 13.7578125 C35.29773438 14.37269531 35.29773438 14.37269531 36 15 C33 16 33 16 30 16 C30 16.99 30 17.98 30 19 C29.34 18.67 28.68 18.34 28 18 C27.01 18.99 26.02 19.98 25 21 C22.13735733 19.68230669 19.89914149 18.21923962 17.5390625 16.13671875 C16.90226562 15.57919922 16.26546875 15.02167969 15.609375 14.44726562 C14.62710937 13.57618164 14.62710937 13.57618164 13.625 12.6875 C12.32598764 11.54504192 11.02651424 10.40310783 9.7265625 9.26171875 C9.10297852 8.71177246 8.47939453 8.16182617 7.83691406 7.59521484 C6.09056604 6.07864946 4.31491546 4.60727353 2.5234375 3.14453125 C1.69070313 2.43683594 0.85796875 1.72914063 0 1 C0 0.67 0 0.34 0 0 Z " fill="#96303B" transform="translate(403,234)"/>
<path d="M0 0 C0.99 0.495 0.99 0.495 2 1 C-2.06158918 6.70834339 -6.55312441 12.68379531 -13.52609634 14.74768448 C-20.72201079 15.84712145 -27.98716708 15.49218326 -35.23828125 15.26953125 C-37.57377475 15.24524544 -39.90933506 15.22675895 -42.24491882 15.21379089 C-48.3540653 15.16445778 -54.45911038 15.03704177 -60.56665039 14.89263916 C-66.81405156 14.7589815 -73.06212413 14.70013777 -79.31054688 14.63476562 C-91.54215402 14.49588339 -103.7707343 14.2743971 -116 14 C-116 13.67 -116 13.34 -116 13 C-114.05894379 12.99786247 -114.05894379 12.99786247 -112.07867432 12.99568176 C-99.89477897 12.97902591 -87.71121823 12.93629535 -75.52750015 12.86790943 C-69.26340173 12.83359116 -62.99954846 12.80852188 -56.73535156 12.80444336 C-50.69213827 12.80017088 -44.64947844 12.77179471 -38.60643768 12.72656822 C-36.29875662 12.7135597 -33.99100944 12.70929733 -31.6832962 12.71384621 C-28.45524529 12.71872815 -25.22882704 12.69276502 -22.00097656 12.65942383 C-20.56383301 12.67236229 -20.56383301 12.67236229 -19.09765625 12.68556213 C-13.73008471 12.67270967 -13.73008471 12.67270967 -9.50872803 9.58500671 C-8.76190765 8.30542839 -8.76190765 8.30542839 -8 7 C-6.61568802 5.69399764 -5.20008119 4.42006901 -3.75 3.1875 C-2.69039062 2.28064453 -2.69039062 2.28064453 -1.609375 1.35546875 C-1.07828125 0.90816406 -0.5471875 0.46085937 0 0 Z " fill="#7A2832" transform="translate(309,297)"/>
<path d="M0 0 C9.29666476 0.62515533 14.26542631 4.93709257 21 11 C22.69464706 12.4493429 24.40046385 13.88466313 26.1081543 15.31860352 C27.7296188 16.68039214 29.34427232 18.04979598 30.95703125 19.421875 C33.95807226 21.96447714 36.97502953 24.48597372 40 27 C44.59306496 25.5140084 47.43569245 23.14985318 51 20 C51.66 20.33 52.32 20.66 53 21 C51.6875 23 51.6875 23 50 25 C49.01 25 48.02 25 47 25 C46.67 26.32 46.34 27.64 46 29 C41.64583765 30.0125959 38.91376936 30.32710611 35 28 C33.96210419 26.35666496 32.96432076 24.68756133 32 23 C30.36218751 21.63137814 28.69059211 20.30286372 27 19 C25.2073677 17.52200375 23.41572897 16.04280174 21.625 14.5625 C19.75312225 13.03782538 17.87834033 11.51670584 16 10 C15.3090625 9.44054687 14.618125 8.88109375 13.90625 8.3046875 C11.24065261 6.25872459 9.44477759 5.04731676 6.0625 4.6875 C5.381875 4.790625 4.70125 4.89375 4 5 C4 4.34 4 3.68 4 3 C2.35 2.67 0.7 2.34 -1 2 C-0.67 1.34 -0.34 0.68 0 0 Z " fill="#85343D" transform="translate(217,215)"/>
<path d="M0 0 C2.949375 -0.020625 5.89875 -0.04125 8.9375 -0.0625 C9.86812256 -0.071604 10.79874512 -0.08070801 11.75756836 -0.09008789 C12.48596924 -0.09258545 13.21437012 -0.09508301 13.96484375 -0.09765625 C14.7137085 -0.10289307 15.46257324 -0.10812988 16.23413086 -0.11352539 C18 0 18 0 19 1 C19.08631874 2.34267413 19.10706473 3.68974322 19.09765625 5.03515625 C19.09515869 5.76355713 19.09266113 6.49195801 19.09008789 7.24243164 C19.08098389 8.1730542 19.07187988 9.10367676 19.0625 10.0625 C19.041875 13.011875 19.02125 15.96125 19 19 C12.73 19 6.46 19 0 19 C0 12.73 0 6.46 0 0 Z M3 2 C1.93276039 5.46222615 1.89826514 8.64039266 1.9375 12.25 C1.958125 14.1475 1.97875 16.045 2 18 C6.95 18 11.9 18 17 18 C17.185625 16.081875 17.37125 14.16375 17.5625 12.1875 C17.66691406 11.10855469 17.77132812 10.02960938 17.87890625 8.91796875 C18.17577609 5.93517546 18.17577609 5.93517546 17 3 C14.23547967 1.61773984 11.9538637 1.90474613 8.875 1.9375 C7.77929688 1.94652344 6.68359375 1.95554687 5.5546875 1.96484375 C4.29011719 1.98224609 4.29011719 1.98224609 3 2 Z " fill="#8D3B45" transform="translate(93,281)"/>
<path d="M0 0 C0.74886475 0.00523682 1.49772949 0.01047363 2.26928711 0.01586914 C3.36188843 0.01961548 3.36188843 0.01961548 4.4765625 0.0234375 C5.40718506 0.0325415 6.33780762 0.04164551 7.29663086 0.05102539 C11.72069336 0.08196289 11.72069336 0.08196289 16.23413086 0.11352539 C16.23413086 6.38352539 16.23413086 12.65352539 16.23413086 19.11352539 C9.96413086 19.11352539 3.69413086 19.11352539 -2.76586914 19.11352539 C-2.78649414 16.16415039 -2.80711914 13.21477539 -2.82836914 10.17602539 C-2.83747314 9.24540283 -2.84657715 8.31478027 -2.85595703 7.35595703 C-2.85845459 6.62755615 -2.86095215 5.89915527 -2.86352539 5.14868164 C-2.86876221 4.39981689 -2.87399902 3.65095215 -2.87939453 2.87939453 C-2.72446543 0.46949736 -2.40989717 0.1549291 0 0 Z M-0.76586914 2.11352539 C-0.76586914 7.39352539 -0.76586914 12.67352539 -0.76586914 18.11352539 C4.18413086 18.11352539 9.13413086 18.11352539 14.23413086 18.11352539 C14.26506836 14.43196289 14.26506836 14.43196289 14.29663086 10.67602539 C14.30573486 9.90202393 14.31483887 9.12802246 14.32421875 8.33056641 C14.33137999 6.59130822 14.28437788 4.85207235 14.23413086 3.11352539 C13.09711489 1.7481999 13.09711489 1.7481999 10.07397461 2.01586914 C8.78620117 2.0274707 7.49842773 2.03907227 6.17163086 2.05102539 C2.73756836 2.08196289 2.73756836 2.08196289 -0.76586914 2.11352539 Z " fill="#8A3A43" transform="translate(394.765869140625,268.886474609375)"/>
<path d="M0 0 C2.76595101 1.21701844 5.04015918 2.75140846 7.4375 4.5625 C10.3072807 6.6748064 12.47228978 7.39524968 16 8 C16.99 9.485 16.99 9.485 18 11 C18.99 11.66 19.98 12.32 21 13 C21.268125 13.78375 21.53625 14.5675 21.8125 15.375 C23.40744482 18.90066749 25.78594921 19.97375059 29 22 C29 22.66 29 23.32 29 24 C29.61875 24.309375 30.2375 24.61875 30.875 24.9375 C32.25 25.625 33.625 26.3125 35 27 C35 27.66 35 28.32 35 29 C35.5775 29.04125 36.155 29.0825 36.75 29.125 C40.13312465 30.44065958 41.19222685 32.96552364 43 36 C34.42910194 32.19292668 27.40088922 24.50907714 20.54296875 18.26171875 C16.97414559 15.08760414 13.27131101 12.090172 9.5625 9.08203125 C6.31791013 6.44580198 3.12474786 3.77755365 0 1 C0 0.67 0 0.34 0 0 Z " fill="#892E3D" transform="translate(428,255)"/>
<path d="M0 0 C1.50820312 0.43505859 1.50820312 0.43505859 3.046875 0.87890625 C3.046875 1.53890625 3.046875 2.19890625 3.046875 2.87890625 C0.736875 2.87890625 -1.573125 2.87890625 -3.953125 2.87890625 C-4.283125 4.19890625 -4.613125 5.51890625 -4.953125 6.87890625 C-4.293125 7.20890625 -3.633125 7.53890625 -2.953125 7.87890625 C-3.84 8.43578125 -4.726875 8.99265625 -5.640625 9.56640625 C-8.00974465 11.12533168 -9.60879596 12.54982538 -11.640625 14.62890625 C-13.953125 16.87890625 -13.953125 16.87890625 -16.953125 16.87890625 C-17.283125 17.86890625 -17.613125 18.85890625 -17.953125 19.87890625 C-18.943125 19.54890625 -19.933125 19.21890625 -20.953125 18.87890625 C-18.65205009 13.40134749 -15.45369203 9.93640122 -11.203125 5.94140625 C-10.60757813 5.34005859 -10.01203125 4.73871094 -9.3984375 4.11914062 C-6.00394995 0.91201115 -4.85645425 -0.1487649 0 0 Z " fill="#A23442" transform="translate(91.953125,184.12109375)"/>
<path d="M0 0 C6.31379275 2.92151375 10.78972406 7.54223489 15 13 C15.66 13.33 16.32 13.66 17 14 C17 14.66 17 15.32 17 16 C17.66 16 18.32 16 19 16 C23.76744186 20.30232558 23.76744186 20.30232558 25 24 C25.66 24 26.32 24 27 24 C28.35386936 25.65002828 29.68678142 27.3174387 31 29 C31.66 29.33 32.32 29.66 33 30 C33 30.66 33 31.32 33 32 C34.1446875 32.0928125 34.1446875 32.0928125 35.3125 32.1875 C38 33 38 33 39.9375 35.25 C41 38 41 38 40.5 40.5625 C38.73266409 43.43442085 36.73364208 45.05767536 34 47 C34 44 34 44 36 41.8125 C36.66 41.214375 37.32 40.61625 38 40 C36.42866944 36.01875909 33.84705619 33.84029189 30.671875 31.0390625 C24.52921971 25.54069841 18.65755686 19.81139709 12.84082031 13.97119141 C11.21276847 12.33764276 9.57925509 10.70968573 7.9453125 9.08203125 C6.90592814 8.04198822 5.86685287 7.00163619 4.828125 5.9609375 C3.8990332 5.03071777 2.96994141 4.10049805 2.01269531 3.14208984 C0 1 0 1 0 0 Z " fill="#872F3D" transform="translate(160,255)"/>
<path d="M0 0 C6.27 0 12.54 0 19 0 C19 6.27 19 12.54 19 19 C12.73 19 6.46 19 0 19 C0 12.73 0 6.46 0 0 Z M2 2 C2 7.28 2 12.56 2 18 C7.28 18 12.56 18 18 18 C18.020625 15.545625 18.04125 13.09125 18.0625 10.5625 C18.071604 9.78849854 18.08070801 9.01449707 18.09008789 8.21704102 C18.09724913 6.47778283 18.05024702 4.73854696 18 3 C16.83722968 1.60843516 16.83722968 1.60843516 13.62109375 1.90234375 C12.22652508 1.90808576 10.83198403 1.92109772 9.4375 1.9375 C6.983125 1.958125 4.52875 1.97875 2 2 Z " fill="#8C3C45" transform="translate(413,269)"/>
<path d="M0 0 C0.66 0.33 1.32 0.66 2 1 C1.01 2.485 1.01 2.485 0 4 C0.66 4.66 1.32 5.32 2 6 C1.21238281 6.59425781 0.42476563 7.18851562 -0.38671875 7.80078125 C-8.48318678 13.94863331 -16.29628032 20.36799255 -24 27 C-24.66 26.67 -25.32 26.34 -26 26 C-25.32324219 25.32582031 -24.64648438 24.65164063 -23.94921875 23.95703125 C-21.79195517 21.80128848 -19.65317936 19.62832562 -17.51953125 17.44921875 C-16.28393164 16.19523615 -15.04825327 14.94133117 -13.8125 13.6875 C-12.86987305 12.71973633 -12.86987305 12.71973633 -11.90820312 11.73242188 C-11.30556641 11.12333984 -10.70292969 10.51425781 -10.08203125 9.88671875 C-9.53780518 9.33201904 -8.9935791 8.77731934 -8.43286133 8.20581055 C-7 7 -7 7 -5 7 C-4.731875 6.401875 -4.46375 5.80375 -4.1875 5.1875 C-3.01506533 3.02775192 -1.80630718 1.64209744 0 0 Z " fill="#7C353E" transform="translate(375,252)"/>
<path d="M0 0 C2.9440049 1.81169532 3.90302565 3.43105129 5.4375 6.5 C5.829375 7.263125 6.22125 8.02625 6.625 8.8125 C6.893125 9.369375 7.16125 9.92625 7.4375 10.5 C6.715625 9.819375 5.99375 9.13875 5.25 8.4375 C2.68899427 6.26589279 2.68899427 6.26589279 0.125 6.5625 C-3.4277774 7.80184095 -5.72675379 9.99203939 -8.375 12.5625 C-8.87708984 13.03494141 -9.37917969 13.50738281 -9.89648438 13.99414062 C-11.12672789 15.15408452 -12.34577065 16.32588815 -13.5625 17.5 C-14.2225 17.17 -14.8825 16.84 -15.5625 16.5 C-15.088125 16.149375 -14.61375 15.79875 -14.125 15.4375 C-11.88376175 12.65836457 -11.89132342 9.9855283 -11.5625 6.5 C-9.9125 5.84 -8.2625 5.18 -6.5625 4.5 C-6.5625 3.84 -6.5625 3.18 -6.5625 2.5 C-4.24354596 0.09515878 -3.35123904 -0.6539003 0 0 Z " fill="#AC3841" transform="translate(95.5625,215.5)"/>
<path d="M0 0 C4.78724261 0.4579853 6.95726266 2.41176035 10.375 5.6875 C11.32761719 6.58597656 12.28023438 7.48445312 13.26171875 8.41015625 C14.16535156 9.26480469 15.06898438 10.11945313 16 11 C18.30920128 13.03098426 20.65030266 15.01581114 23 17 C22.34 17.33 21.68 17.66 21 18 C14.6 15.6 14.6 15.6 12 13 C9.89179203 13.3185177 9.89179203 13.3185177 8 14 C8.66 13.67 9.32 13.34 10 13 C10 12.34 10 11.68 10 11 C9.01 10.67 8.02 10.34 7 10 C7.66 10 8.32 10 9 10 C9 9.34 9 8.68 9 8 C7.68 8 6.36 8 5 8 C5 7.01 5 6.02 5 5 C4.01 4.67 3.02 4.34 2 4 C1.01 3.67 0.02 3.34 -1 3 C-0.67 2.01 -0.34 1.02 0 0 Z " fill="#AA3543" transform="translate(405,223)"/>
<path d="M0 0 C4.45887011 0.80405854 7.20101779 2.4504845 10.96875 4.88671875 C14.21479776 6.94225174 17.54611019 8.76120049 20.9375 10.5625 C22.05382812 11.15804687 23.17015625 11.75359375 24.3203125 12.3671875 C25.14273438 12.80289063 25.96515625 13.23859375 26.8125 13.6875 C26.7432652 11.28830146 26.7432652 11.28830146 25.8125 8.6875 C23.3077741 6.78247396 23.3077741 6.78247396 20.25 5.375 C19.23808594 4.86324219 18.22617187 4.35148438 17.18359375 3.82421875 C16.40113281 3.44910156 15.61867188 3.07398438 14.8125 2.6875 C15.4725 2.3575 16.1325 2.0275 16.8125 1.6875 C19.6328125 2.90234375 19.6328125 2.90234375 22.9375 4.625 C24.58105469 5.47384766 24.58105469 5.47384766 26.2578125 6.33984375 C27.10085938 6.78457031 27.94390625 7.22929687 28.8125 7.6875 C28.8125 10.3275 28.8125 12.9675 28.8125 15.6875 C24.90376858 15.09996443 22.09258001 13.91619593 18.6875 11.9296875 C17.73359375 11.38699219 16.7796875 10.84429687 15.796875 10.28515625 C13.80390051 9.13476129 11.81431161 7.9784814 9.828125 6.81640625 C8.39726562 6.00623047 8.39726562 6.00623047 6.9375 5.1796875 C6.07382812 4.67808105 5.21015625 4.17647461 4.3203125 3.65966797 C1.32118251 2.49703794 -0.16314253 2.69376414 -3.1875 3.6875 C-4.98135992 5.1454186 -4.98135992 5.1454186 -6.1875 6.6875 C-6.8475 6.3575 -7.5075 6.0275 -8.1875 5.6875 C-5.597672 2.54831454 -4.03589368 0.87048687 0 0 Z " fill="#7E2E39" transform="translate(293.1875,136.3125)"/>
<path d="M0 0 C2.949375 -0.020625 5.89875 -0.04125 8.9375 -0.0625 C9.86812256 -0.071604 10.79874512 -0.08070801 11.75756836 -0.09008789 C12.48596924 -0.09258545 13.21437012 -0.09508301 13.96484375 -0.09765625 C14.7137085 -0.10289307 15.46257324 -0.10812988 16.23413086 -0.11352539 C18 0 18 0 19 1 C19.08631874 2.34267413 19.10706473 3.68974322 19.09765625 5.03515625 C19.09443359 5.84404297 19.09121094 6.65292969 19.08789062 7.48632812 C19.07951172 8.33646484 19.07113281 9.18660156 19.0625 10.0625 C19.05798828 10.91650391 19.05347656 11.77050781 19.04882812 12.65039062 C19.03700373 14.76695663 19.01906769 16.88348685 19 19 C18.34 19 17.68 19 17 19 C16.95101562 17.85660156 16.90203125 16.71320313 16.8515625 15.53515625 C16.77654811 14.04424527 16.70099972 12.55336108 16.625 11.0625 C16.57859375 9.93038086 16.57859375 9.93038086 16.53125 8.77539062 C16.4273685 6.84492605 16.22104386 4.92057919 16 3 C13.16730334 1.58365167 10.52533562 1.6536995 7.375 1.4375 C5.27125 1.293125 3.1675 1.14875 1 1 C1 6.61 1 12.22 1 18 C5.95 18 10.9 18 16 18 C16 18.33 16 18.66 16 19 C10.72 19 5.44 19 0 19 C0 12.73 0 6.46 0 0 Z " fill="#8E444D" transform="translate(72,260)"/>
<path d="M0 0 C0.99 0.33 1.98 0.66 3 1 C0.79180719 4.03626512 -1.54546326 6.53675458 -4.40625 8.9375 C-10.22571776 13.97393428 -15.58409291 19.47695168 -21 24.9375 C-22.07137887 26.01390654 -23.14299182 27.09008014 -24.21484375 28.16601562 C-26.81259638 30.77466745 -29.40717962 33.38644471 -32 36 C-32.66 35.67 -33.32 35.34 -34 35 C-33.06027344 34.07767578 -33.06027344 34.07767578 -32.1015625 33.13671875 C-30.87566406 31.92435547 -30.87566406 31.92435547 -29.625 30.6875 C-28.81289063 29.88699219 -28.00078125 29.08648437 -27.1640625 28.26171875 C-24.87395158 25.99990063 -24.87395158 25.99990063 -23 23 C-22.34 23 -21.68 23 -21 23 C-21 22.34 -21 21.68 -21 21 C-19.52040223 19.75056188 -18.03703053 18.504907 -16.5234375 17.296875 C-14.68219125 15.72945511 -13.38293035 13.97561479 -12 12 C-10.4375 10.25 -10.4375 10.25 -9 9 C-8.34 9 -7.68 9 -7 9 C-6.9071875 8.071875 -6.9071875 8.071875 -6.8125 7.125 C-6.544375 6.42375 -6.27625 5.7225 -6 5 C-4.34795544 4.29788106 -2.68076231 3.63028587 -1 3 C-0.67 2.01 -0.34 1.02 0 0 Z " fill="#822A38" transform="translate(370,236)"/>
<path d="M0 0 C8.29944634 5.64362351 15.02178714 12.84537165 22 20 C18.21859121 20 17.48083386 19.02541849 14.625 16.625 C10.43393204 13.16550899 6.19050502 9.80148572 1.875 6.5 C1.29443848 6.05479004 0.71387695 5.60958008 0.11572266 5.15087891 C-1.25549276 4.09968248 -2.6276415 3.04970368 -4 2 C-2.68 1.34 -1.36 0.68 0 0 Z " fill="#843C48" transform="translate(450,235)"/>
<path d="M0 0 C2.35390486 1.86689006 4.03589713 4.02639611 5.8125 6.4375 C5.07 6.086875 4.3275 5.73625 3.5625 5.375 C0.6802274 4.39240707 -0.39926345 4.4048198 -3.1875 5.4375 C-2.40375 6.200625 -1.62 6.96375 -0.8125 7.75 C1.8125 10.4375 1.8125 10.4375 3.8125 13.4375 C0.37654834 11.91041037 -2.30662454 9.83822955 -5.1875 7.4375 C-5.765 7.72625 -6.3425 8.015 -6.9375 8.3125 C-9.02083333 9.35416667 -11.10416667 10.39583333 -13.1875 11.4375 C-12.81496094 10.88320312 -12.44242187 10.32890625 -12.05859375 9.7578125 C-11.58550781 9.03335938 -11.11242187 8.30890625 -10.625 7.5625 C-10.14933594 6.84320313 -9.67367188 6.12390625 -9.18359375 5.3828125 C-8.69052734 4.41988281 -8.69052734 4.41988281 -8.1875 3.4375 C-8.5175 2.7775 -8.8475 2.1175 -9.1875 1.4375 C-2.88877505 -0.74282787 -2.88877505 -0.74282787 0 0 Z " fill="#89323B" transform="translate(412.1875,198.5625)"/>
<path d="M0 0 C2.64 0 5.28 0 8 0 C8 3.3 8 6.6 8 10 C5.36 10 2.72 10 0 10 C0 6.7 0 3.4 0 0 Z " fill="#9F3D4B" transform="translate(204,193)"/>
<path d="M0 0 C0.66 0.33 1.32 0.66 2 1 C0.74349195 6.0547524 -0.76676478 8.09992559 -5.0625 11 C-6.52816406 12.00546875 -6.52816406 12.00546875 -8.0234375 13.03125 C-9.00570312 13.6809375 -9.98796875 14.330625 -11 15 C-11.89976562 15.6084375 -12.79953125 16.216875 -13.7265625 16.84375 C-15.80808964 18.2446508 -17.8981296 19.62989189 -20 21 C-18.41987986 17.50116255 -17.39126684 16.69563342 -14 15 C-13.75507813 14.43796875 -13.51015625 13.8759375 -13.2578125 13.296875 C-11.43546175 9.96910406 -8.68251075 7.73181345 -5.875 5.25 C-5.31167969 4.74339844 -4.74835938 4.23679688 -4.16796875 3.71484375 C-2.78348469 2.47115468 -1.39238512 1.23483695 0 0 Z " fill="#8A3E49" transform="translate(195,155)"/>
<path d="M0 0 C3.79049707 1.42749981 7.27122456 3.16236542 10.8125 5.125 C12.27623047 5.93324219 12.27623047 5.93324219 13.76953125 6.7578125 C14.87361328 7.37269531 14.87361328 7.37269531 16 8 C16 9.65 16 11.3 16 13 C12.54797941 11.64893988 9.1611953 10.21575692 5.8125 8.625 C4.95269531 8.22539062 4.09289062 7.82578125 3.20703125 7.4140625 C0.73481206 5.83009197 -0.09923767 4.77412694 -1 2 C-0.67 1.34 -0.34 0.68 0 0 Z " fill="#A83546" transform="translate(304,137)"/>
<path d="M0 0 C0.66 0.33 1.32 0.66 2 1 C2 1.33 2 1.66 2 2 C4.62113708 2 6.50935112 1.68707555 9 1 C9 1.66 9 2.32 9 3 C9.99 3.33 10.98 3.66 12 4 C11.34 4.66 10.68 5.32 10 6 C9.01 5.34 8.02 4.68 7 4 C1.38598534 8.73584477 -3.80425407 13.767267 -8.8984375 19.05859375 C-11 21 -11 21 -13 21 C-13 20.01 -13 19.02 -13 18 C-11.35178756 16.96986723 -9.68496298 15.96885372 -8 15 C-8 14.34 -8 13.68 -8 13 C-6.7934375 12.319375 -6.7934375 12.319375 -5.5625 11.625 C-2.83093143 10.2874638 -2.83093143 10.2874638 -2.375 7.875 C-2.25125 7.25625 -2.1275 6.6375 -2 6 C-1.01 5.67 -0.02 5.34 1 5 C-0.32 4.67 -1.64 4.34 -3 4 C-2.01 2.68 -1.02 1.36 0 0 Z " fill="#8E313D" transform="translate(206,169)"/>
<path d="M0 0 C0.7425 0.763125 1.485 1.52625 2.25 2.3125 C4.823554 4.95571199 4.823554 4.95571199 7.3125 6.6875 C7.869375 7.120625 8.42625 7.55375 9 8 C9 8.66 9 9.32 9 10 C9.66 10 10.32 10 11 10 C11 10.66 11 11.32 11 12 C11.639375 12.268125 12.27875 12.53625 12.9375 12.8125 C15 14 15 14 16 17 C18.00016466 18.20882096 18.00016466 18.20882096 20 19 C20 19.66 20 20.32 20 21 C17.1958531 19.70324932 14.97199514 18.28546588 12.65234375 16.25 C12.04712891 15.7240625 11.44191406 15.198125 10.81835938 14.65625 C10.19767578 14.1096875 9.57699219 13.563125 8.9375 13 C7.69790296 11.91519268 6.45706251 10.83180417 5.21484375 9.75 C4.66948975 9.27046875 4.12413574 8.7909375 3.56225586 8.296875 C1.81919476 6.80388257 1.81919476 6.80388257 -1 5 C-0.67 3.35 -0.34 1.7 0 0 Z " fill="#803642" transform="translate(126,240)"/>
<path d="M0 0 C1.32 0.33 2.64 0.66 4 1 C4 1.66 4 2.32 4 3 C4.8353125 3.37125 4.8353125 3.37125 5.6875 3.75 C8 5 8 5 10.25 7.125 C14.06812765 9.72826885 16.44976841 9.30849028 21 9 C20.01 6.69 19.02 4.38 18 2 C20.94956528 3.36944102 23.52468811 4.87830409 26 7 C26 7.66 26 8.32 26 9 C26.99 9.33 27.98 9.66 29 10 C29 10.33 29 10.66 29 11 C11.60797663 12.54978426 11.60797663 12.54978426 4.375 6.625 C1.7734375 4.1640625 1.7734375 4.1640625 0 2 C0 1.34 0 0.68 0 0 Z " fill="#802735" transform="translate(471,291)"/>
<path d="M0 0 C0.33 0 0.66 0 1 0 C1.33 5.28 1.66 10.56 2 16 C6.62 16 11.24 16 16 16 C16.33 10.72 16.66 5.44 17 0 C17.66 0 18.32 0 19 0 C19 5.94 19 11.88 19 18 C12.73 18 6.46 18 0 18 C0 12.06 0 6.12 0 0 Z " fill="#82373F" transform="translate(93,261)"/>
<path d="M0 0 C5.94 0 11.88 0 18 0 C17.67 0.66 17.34 1.32 17 2 C12.38 2 7.76 2 3 2 C2.67 6.95 2.34 11.9 2 17 C7.28 17 12.56 17 18 17 C18 17.33 18 17.66 18 18 C12.06 18 6.12 18 0 18 C0 12.06 0 6.12 0 0 Z " fill="#84323E" transform="translate(392,291)"/>
<path d="M0 0 C4.06153063 2.14358561 6.16717092 4.43872916 9 8 C11.09224312 9.86649049 13.22579124 11.66757637 15.390625 13.44921875 C15.92171875 13.96097656 16.4528125 14.47273437 17 15 C17 15.66 17 16.32 17 17 C17.8353125 17.309375 17.8353125 17.309375 18.6875 17.625 C21.30197416 19.17955221 22.88644992 21.09998937 24.76171875 23.46875 C26.37011646 25.45768345 28.15913551 27.22731568 30 29 C29.67 29.66 29.34 30.32 29 31 C24.86361198 26.91292695 20.73374208 22.81942122 16.60986328 18.71972656 C15.20507692 17.32501851 13.79850363 15.93210796 12.39013672 14.54101562 C10.36998287 12.54502969 8.35627344 10.5427381 6.34375 8.5390625 C5.7094104 7.91504547 5.0750708 7.29102844 4.42150879 6.64810181 C2.90923861 5.1362251 1.4490171 3.57260348 0 2 C0 1.34 0 0.68 0 0 Z " fill="#893743" transform="translate(95,190)"/>
<path d="M0 0 C0.33 0 0.66 0 1 0 C1 5.61 1 11.22 1 17 C3.10375 16.62875 3.10375 16.62875 5.25 16.25 C9.29290951 16.18049439 11.38354088 17.05322757 14.3359375 19.671875 C17.38010144 22.6443694 20.21537648 25.78476459 23 29 C22.67 29.66 22.34 30.32 22 31 C20.49410612 29.71520959 18.99542625 28.42195918 17.5 27.125 C16.6646875 26.40570313 15.829375 25.68640625 14.96875 24.9453125 C14.3190625 24.30335938 13.669375 23.66140625 13 23 C13 22.34 13 21.68 13 21 C8.71 20.34 4.42 19.68 0 19 C0 12.73 0 6.46 0 0 Z " fill="#8C3A45" transform="translate(319,156)"/>
<path d="M0 0 C0.33 0.66 0.66 1.32 1 2 C1.66 2.33 2.32 2.66 3 3 C-3.89964482 8.80223939 -10.82973001 14.5317638 -18 20 C-18.66 19.67 -19.32 19.34 -20 19 C-15.78781944 14.66935186 -11.44298473 10.5882631 -6.8671875 6.64453125 C-4.46487962 4.52869105 -2.22791166 2.2975339 0 0 Z " fill="#7D3E4B" transform="translate(45,223)"/>
<path d="M0 0 C5.47035213 3.79037089 9.89962427 7.75027653 14 13 C12.68 12.67 11.36 12.34 10 12 C10.99 13.485 10.99 13.485 12 15 C11.67 16.32 11.34 17.64 11 19 C6.71 15.37 2.42 11.74 -2 8 C-1.34 7.67 -0.68 7.34 0 7 C2.31 8.98 4.62 10.96 7 13 C7.33 12.01 7.66 11.02 8 10 C7.608125 9.608125 7.21625 9.21625 6.8125 8.8125 C6.214375 8.214375 5.61625 7.61625 5 7 C4.113125 6.154375 3.22625 5.30875 2.3125 4.4375 C0 2 0 2 0 0 Z " fill="#89303A" transform="translate(418,205)"/>
<path d="M0 0 C0.78375 0.2475 1.5675 0.495 2.375 0.75 C2.705 1.41 3.035 2.07 3.375 2.75 C2.6325 2.6675 1.89 2.585 1.125 2.5 C-2.46157883 2.82605262 -3.20692102 4.18079109 -5.625 6.75 C-7.28316784 7.43753301 -8.94959336 8.10561283 -10.625 8.75 C-13.03693803 10.55895352 -13.55453731 11.47455494 -14.3125 14.4375 C-14.415625 15.200625 -14.51875 15.96375 -14.625 16.75 C-12.975 16.09 -11.325 15.43 -9.625 14.75 C-10.90562485 16.4574998 -12.24267557 18.12373596 -13.625 19.75 C-14.285 19.75 -14.945 19.75 -15.625 19.75 C-16.27318505 16.23539664 -16.45402965 13.24483159 -15.625 9.75 C-12.68967987 6.46330637 -9.31861487 4.12322026 -5.625 1.75 C-2.625 -0.25 -2.625 -0.25 0 0 Z " fill="#87343C" transform="translate(293.625,129.25)"/>
<path d="M0 0 C6.16768454 2.7137812 10.7428327 6.07787763 14 12 C16.57977513 14.78894609 19.26905349 17.22492324 22.25 19.5625 C25.03717101 22.03294703 25.39202626 22.57652882 26 26 C20.02265091 21.04455862 14.53812065 15.68810448 9.0625 10.1875 C8.18787109 9.31673828 7.31324219 8.44597656 6.41210938 7.54882812 C5.58646484 6.72189453 4.76082031 5.89496094 3.91015625 5.04296875 C3.15871338 4.29039795 2.40727051 3.53782715 1.63305664 2.76245117 C0 1 0 1 0 0 Z " fill="#88343F" transform="translate(134,229)"/>
<path d="M0 0 C1.32 0.33 2.64 0.66 4 1 C1.66791398 5.66417204 -2.14985934 9.54474556 -6 13 C-6.99 13 -7.98 13 -9 13 C-9.3125 10.75 -9.3125 10.75 -9 8 C-4.89189189 4 -4.89189189 4 -2 4 C-1.34 2.68 -0.68 1.36 0 0 Z " fill="#A93343" transform="translate(203,173)"/>
<path d="M0 0 C0.99 0.33 1.98 0.66 3 1 C2.67 1.99 2.34 2.98 2 4 C1.34 4 0.68 4 0 4 C0 4.66 0 5.32 0 6 C-0.66 6 -1.32 6 -2 6 C-2.103125 6.598125 -2.20625 7.19625 -2.3125 7.8125 C-3.11209475 10.35666511 -3.81974318 11.4657452 -6 13 C-8.1875 12.6875 -8.1875 12.6875 -10 12 C-7.9009871 6.81420343 -4.86282294 2.84033067 0 0 Z " fill="#8E3644" transform="translate(384,244)"/>
<path d="M0 0 C4.55921438 1.96875167 7.25482252 3.83139716 10 8 C10.75 10.3125 10.75 10.3125 11 12 C6.5775155 11.14952221 4.5067028 10.62671136 1.625 7.0625 C0 4 0 4 -1 1 C-0.67 0.67 -0.34 0.34 0 0 Z " fill="#993743" transform="translate(428,216)"/>
<path d="M0 0 C7.02518661 0.67353124 13.6744404 2.30304056 20.5 4.0625 C21.60859375 4.34416016 22.7171875 4.62582031 23.859375 4.91601562 C26.5740437 5.60638396 29.28750638 6.30114375 32 7 C31.67 7.66 31.34 8.32 31 9 C24.61325967 8.24861878 24.61325967 8.24861878 21.6875 7.0625 C15.15727496 4.48078313 7.94123533 3.77124837 1 3 C0.67 2.01 0.34 1.02 0 0 Z " fill="#8B3742" transform="translate(96,186)"/>
<path d="M0 0 C0.33 0.66 0.66 1.32 1 2 C0.34 2 -0.32 2 -1 2 C-1 2.99 -1 3.98 -1 5 C-2.258125 5.04125 -3.51625 5.0825 -4.8125 5.125 C-5.52019531 5.14820313 -6.22789062 5.17140625 -6.95703125 5.1953125 C-10.18184981 4.88701245 -12.34374696 2.77083536 -15 1 C-13.25215171 0.63536268 -11.50159498 0.2836922 -9.75 -0.0625 C-8.28820312 -0.35833984 -8.28820312 -0.35833984 -6.796875 -0.66015625 C-4.11254926 -0.98632432 -2.49306573 -1.00065712 0 0 Z " fill="#9E3644" transform="translate(404,201)"/>
<path d="M0 0 C1.63885071 1.39985164 3.27678227 2.80079312 4.91015625 4.20703125 C6.34885035 5.44135012 7.79460656 6.66746951 9.24609375 7.88671875 C9.96925781 8.50160156 10.69242187 9.11648437 11.4375 9.75 C12.11683594 10.32234375 12.79617188 10.8946875 13.49609375 11.484375 C15 13 15 13 15 15 C15.66 15 16.32 15 17 15 C18.625 17.5 18.625 17.5 20 20 C16.34683329 18.75023244 15.21934164 18.32901247 13 15 C12.01 15 11.02 15 10 15 C9.9175 14.21625 9.835 13.4325 9.75 12.625 C9.29150599 9.8553382 9.29150599 9.8553382 7 8.875 C6.01 8.441875 6.01 8.441875 5 8 C4.67 7.01 4.34 6.02 4 5 C1.99983534 3.79117904 1.99983534 3.79117904 0 3 C0 2.01 0 1.02 0 0 Z " fill="#87353C" transform="translate(343,186)"/>
<path d="M0 0 C0.66 0.33 1.32 0.66 2 1 C-5.59 8.59 -13.18 16.18 -21 24 C-21.33 23.01 -21.66 22.02 -22 21 C-21.45730469 20.55269531 -20.91460937 20.10539062 -20.35546875 19.64453125 C-16.42159413 16.32023 -13.57146776 13.50006858 -11 9 C-10.3915625 8.69964844 -9.783125 8.39929688 -9.15625 8.08984375 C-6.68650183 6.84154712 -5.1641729 5.36279494 -3.25 3.375 C-2.63640625 2.74335938 -2.0228125 2.11171875 -1.390625 1.4609375 C-0.93171875 0.97882813 -0.4728125 0.49671875 0 0 Z " fill="#80333D" transform="translate(397,211)"/>
<path d="M0 0 C9.44183462 1.54984758 18.7051791 3.75529531 28 6 C27.67 6.66 27.34 7.32 27 8 C21.22204237 7.65663776 16.30554586 6.93522837 10.9609375 4.69921875 C7.6951793 3.53473525 4.44213059 3.30733309 1 3 C0.67 2.01 0.34 1.02 0 0 Z " fill="#883B43" transform="translate(134,195)"/>
<path d="M0 0 C2.4375 0.8125 2.4375 0.8125 5 2 C5.33 2.99 5.66 3.98 6 5 C6.598125 5.144375 7.19625 5.28875 7.8125 5.4375 C10.77479483 6.19923296 12.04920816 7.70085247 14 10 C14 10.66 14 11.32 14 12 C14.5775 12.2475 15.155 12.495 15.75 12.75 C18.3002997 14.16683317 20.01785701 15.87627537 22 18 C21.34 18.33 20.68 18.66 20 19 C15.10237817 14.77940236 10.2817078 10.47607031 5.5 6.125 C4.95956055 5.63668701 4.41912109 5.14837402 3.86230469 4.64526367 C2.55537603 3.45116792 1.27493982 2.22819203 0 1 C0 0.67 0 0.34 0 0 Z " fill="#82323A" transform="translate(261,194)"/>
<path d="M0 0 C4.05281712 1.22527029 7.44360764 2.69880494 11 5 C10.01 5.495 10.01 5.495 9 6 C8.34 5.67 7.68 5.34 7 5 C7 5.99 7 6.98 7 8 C7.66 8.66 8.32 9.32 9 10 C5.2241456 9.47557578 2.77627845 8.67345333 0 6 C0 3 0 3 1 2 C0.67 1.34 0.34 0.68 0 0 Z " fill="#9A343D" transform="translate(297,132)"/>
<path d="M0 0 C7.53258782 4.77676301 13.7923015 10.62248604 20 17 C15.7974006 17 14.74816444 15.18085564 11.75 12.3125 C7.70263615 8.50108113 3.62858796 5.08572531 -1 2 C-0.67 1.34 -0.34 0.68 0 0 Z " fill="#65383E" transform="translate(239,192)"/>
<path d="M0 0 C3.057952 1.73559438 5.63379989 3.38472619 8 6 C7.67 6.99 7.34 7.98 7 9 C6.34 9 5.68 9 5 9 C5 8.34 5 7.68 5 7 C4.34 6.67 3.68 6.34 3 6 C3 5.34 3 4.68 3 4 C2.071875 4.495 1.14375 4.99 0.1875 5.5 C-3 7 -3 7 -6 7 C-4.60667426 3.63279613 -3.0210714 2.0140476 0 0 Z " fill="#A73644" transform="translate(212,166)"/>
<path d="M0 0 C0.66 0.33 1.32 0.66 2 1 C0.19587357 4.26460973 -0.83394693 5.88929795 -4 8 C-1.03 8.495 -1.03 8.495 2 9 C1.34 9.66 0.68 10.32 0 11 C-2.3828125 10.9765625 -2.3828125 10.9765625 -5.125 10.625 C-6.03507813 10.51414062 -6.94515625 10.40328125 -7.8828125 10.2890625 C-8.58148438 10.19367188 -9.28015625 10.09828125 -10 10 C-7.02911382 6.00073014 -3.87051275 3.07881696 0 0 Z " fill="#82353F" transform="translate(191,301)"/>
<path d="M0 0 C0 0.99 0 1.98 0 3 C-1.65234375 4.578125 -1.65234375 4.578125 -3.9375 6.25 C-5.15566406 7.15685547 -5.15566406 7.15685547 -6.3984375 8.08203125 C-7.25695312 8.71496094 -8.11546875 9.34789062 -9 10 C-10.6911851 11.30774824 -12.37889264 12.62001043 -14.0625 13.9375 C-14.81660156 14.52402344 -15.57070312 15.11054688 -16.34765625 15.71484375 C-16.89292969 16.13894531 -17.43820313 16.56304687 -18 17 C-18.66 16.67 -19.32 16.34 -20 16 C-18.18880935 12.98134891 -17.30643189 12.09805821 -13.875 11 C-12.92625 10.67 -11.9775 10.34 -11 10 C-10.6278958 8.67696283 -10.29369827 7.34262065 -10 6 C-8.35965807 5.27095914 -6.68698082 4.61344757 -5 4 C-3.29705213 2.71332828 -1.62053812 1.38903267 0 0 Z " fill="#7E2E39" transform="translate(92,189)"/>
<path d="M0 0 C-0.24277376 3.35184423 -1.21969567 4.20803321 -3.72265625 6.578125 C-4.82814546 7.47840364 -5.94176057 8.3687786 -7.0625 9.25 C-7.63033203 9.70890625 -8.19816406 10.1678125 -8.78320312 10.640625 C-10.1819198 11.76900148 -11.59007014 12.8856663 -13 14 C-13.66 13.67 -14.32 13.34 -15 13 C-13.88020758 11.88020758 -12.75972433 10.76110127 -11.63671875 9.64453125 C-10.40002209 8.4019315 -9.17553706 7.14716167 -7.95703125 5.88671875 C-6.89548828 4.79810547 -6.89548828 4.79810547 -5.8125 3.6875 C-5.13832031 2.99011719 -4.46414063 2.29273438 -3.76953125 1.57421875 C-2 0 -2 0 0 0 Z " fill="#743E47" transform="translate(364,265)"/>
<path d="M0 0 C0.99 0.33 1.98 0.66 3 1 C-1.18221366 6.75054379 -6.46720582 12.03982764 -13 15 C-12.00102287 12.00306862 -11.34869747 10.97290587 -9 9 C-8.34 9 -7.68 9 -7 9 C-6.938125 8.38125 -6.87625 7.7625 -6.8125 7.125 C-6.544375 6.42375 -6.27625 5.7225 -6 5 C-4.34795544 4.29788106 -2.68076231 3.63028587 -1 3 C-0.67 2.01 -0.34 1.02 0 0 Z " fill="#8C3340" transform="translate(370,236)"/>
<path d="M0 0 C4.9723422 1.49170266 9.41845739 3.60457417 14 6 C14 8.64 14 11.28 14 14 C11.5625 13.625 11.5625 13.625 9 13 C8.67 12.34 8.34 11.68 8 11 C9.32 11.33 10.64 11.66 12 12 C11.9307652 9.60080146 11.9307652 9.60080146 11 7 C8.4952741 5.09497396 8.4952741 5.09497396 5.4375 3.6875 C4.42558594 3.17574219 3.41367187 2.66398438 2.37109375 2.13671875 C1.58863281 1.76160156 0.80617188 1.38648438 0 1 C0 0.67 0 0.34 0 0 Z " fill="#863845" transform="translate(308,138)"/>
<path d="M0 0 C8.02770189 0.55363461 15.33854067 2.65687944 23 5 C23 5.66 23 6.32 23 7 C18.12464305 6.48134501 13.84700944 5.38375202 9.22265625 3.765625 C6.17967463 2.71742747 3.10141275 1.85783757 0 1 C0 0.67 0 0.34 0 0 Z " fill="#8A3943" transform="translate(261,158)"/>
<path d="M0 0 C1.65 0 3.3 0 5 0 C5 5.94 5 11.88 5 18 C4.34 18 3.68 18 3 18 C2.92652344 16.30230469 2.92652344 16.30230469 2.8515625 14.5703125 C2.77653486 13.08851661 2.70098703 11.606747 2.625 10.125 C2.57859375 9.00544922 2.57859375 9.00544922 2.53125 7.86328125 C2.44356169 3.46526812 2.44356169 3.46526812 0 0 Z " fill="#8B3946" transform="translate(86,261)"/>
<path d="M0 0 C4.24822374 0.47202486 6.19989709 2.96655518 9 6 C8.67 6.66 8.34 7.32 8 8 C7.443125 7.319375 6.88625 6.63875 6.3125 5.9375 C4.18342973 3.73240839 4.18342973 3.73240839 1.5 4 C-1.41591582 5.16636633 -2.9524947 6.64916058 -5 9 C-5.99 8.67 -6.98 8.34 -8 8 C-5.63707344 5.47411298 -4.33537489 4.11179163 -1 3 C-0.67 2.01 -0.34 1.02 0 0 Z " fill="#87323E" transform="translate(94,218)"/>
<path d="M0 0 C1.86323318 0.25288812 3.71708432 0.57690153 5.5625 0.9375 C6.57441406 1.13214844 7.58632812 1.32679688 8.62890625 1.52734375 C9.80259766 1.76130859 9.80259766 1.76130859 11 2 C10.67 3.32 10.34 4.64 10 6 C6.7 5.34 3.4 4.68 0 4 C-0.33 3.01 -0.66 2.02 -1 1 C-0.67 0.67 -0.34 0.34 0 0 Z " fill="#9A3D47" transform="translate(243,153)"/>
<path d="M0 0 C7.33333333 3.66666667 14.66666667 7.33333333 22 11 C21.67 11.66 21.34 12.32 21 13 C17.86542015 11.60387404 14.74438435 10.17971783 11.625 8.75 C10.73554688 8.35425781 9.84609375 7.95851562 8.9296875 7.55078125 C7.65351563 6.96103516 7.65351563 6.96103516 6.3515625 6.359375 C5.56604004 6.00327148 4.78051758 5.64716797 3.97119141 5.28027344 C1.6732473 3.78777667 0.98958073 2.51808805 0 0 Z " fill="#802D3A" transform="translate(296,144)"/>
<path d="M0 0 C3.71045247 1.57780923 6.29906384 3.90703248 9.25 6.625 C10.14203125 7.44226563 11.0340625 8.25953125 11.953125 9.1015625 C12.96632813 10.04128906 12.96632813 10.04128906 14 11 C12 12 12 12 8.5625 10.9375 C4.67119024 9.18560328 3.56963345 6.96538976 2 3 C1.34 2.01 0.68 1.02 0 0 Z " fill="#8A323E" transform="translate(414,229)"/>
<path d="M0 0 C1.15224028 0.92961422 2.29659176 1.8690125 3.4375 2.8125 C4.07558594 3.33457031 4.71367188 3.85664063 5.37109375 4.39453125 C7 6 7 6 8 9 C7.34 9.66 6.68 10.32 6 11 C3.5 9.25 3.5 9.25 1 7 C1 5.68 1 4.36 1 3 C0.34 2.34 -0.32 1.68 -1 1 C-0.67 0.67 -0.34 0.34 0 0 Z " fill="#883C45" transform="translate(118,233)"/>
<path d="M0 0 C4.8465655 1.27836945 7.44959294 2.99199252 10.875 6.625 C11.65617187 7.44226563 12.43734375 8.25953125 13.2421875 9.1015625 C14.11230469 10.04128906 14.11230469 10.04128906 15 11 C11.06517853 11 9.95078791 9.65049674 6.9375 7.1875 C6.05964844 6.47980469 5.18179687 5.77210938 4.27734375 5.04296875 C2 3 2 3 0 0 Z " fill="#6B3F4A" transform="translate(457,244)"/>
<path d="M0 0 C0.99 0.495 0.99 0.495 2 1 C1.67 2.98 1.34 4.96 1 7 C2.98 7 4.96 7 7 7 C7 5.02 7 3.04 7 1 C7.66 1 8.32 1 9 1 C9.04241723 3.33294775 9.04092937 5.66702567 9 8 C8 9 8 9 4.5 9.125 C1 9 1 9 0 8 C-0.14115161 5.32941149 -0.04247107 2.67567762 0 0 Z " fill="#8C3B48" transform="translate(213,194)"/>
<path d="M0 0 C3.80635497 3.20760251 7.54563567 6.40746109 11 10 C10.67 10.66 10.34 11.32 10 12 C9.2575 11.38125 8.515 10.7625 7.75 10.125 C5.2095874 7.99570661 5.2095874 7.99570661 2.8125 7 C0.47306142 5.70927527 -0.14158758 4.49719977 -1 2 C-0.67 1.34 -0.34 0.68 0 0 Z " fill="#833B48" transform="translate(234,185)"/>
<path d="M0 0 C3.47775179 1.51553404 5.9557984 3.5773456 8.75 6.125 C9.94882812 7.21167969 9.94882812 7.21167969 11.171875 8.3203125 C11.77515625 8.87460937 12.3784375 9.42890625 13 10 C8.29631468 10 4.39206328 8.27091817 1 5 C0.25 2.3125 0.25 2.3125 0 0 Z " fill="#8C343F" transform="translate(463,271)"/>
<path d="M0 0 C0.33 1.32 0.66 2.64 1 4 C0.01 4.78375 -0.98 5.5675 -2 6.375 C-3.485 7.674375 -3.485 7.674375 -5 9 C-5 9.66 -5 10.32 -5 11 C-6.32 11 -7.64 11 -9 11 C-9 8 -9 8 -7.28515625 6.2109375 C-6.18494141 5.30214844 -6.18494141 5.30214844 -5.0625 4.375 C-4.33160156 3.76398438 -3.60070313 3.15296875 -2.84765625 2.5234375 C-2.23792969 2.02070313 -1.62820312 1.51796875 -1 1 C-0.67 0.67 -0.34 0.34 0 0 Z " fill="#953948" transform="translate(55,214)"/>
<path d="M0 0 C2.94956528 1.36944102 5.52468811 2.87830409 8 5 C8 5.66 8 6.32 8 7 C8.99 7.33 9.98 7.66 11 8 C11 8.33 11 8.66 11 9 C9.02 9 7.04 9 5 9 C5 8.34 5 7.68 5 7 C4.34 7 3.68 7 3 7 C2.01 4.69 1.02 2.38 0 0 Z " fill="#7D2F3B" transform="translate(489,293)"/>
<path d="M0 0 C0.66 0 1.32 0 2 0 C1.67532221 3.18074177 1.2914815 4.68900757 -0.92578125 7.0546875 C-2.10720703 7.95574219 -2.10720703 7.95574219 -3.3125 8.875 C-4.09238281 9.49117188 -4.87226563 10.10734375 -5.67578125 10.7421875 C-8 12 -8 12 -10.29296875 11.6953125 C-10.85628906 11.46585937 -11.41960938 11.23640625 -12 11 C-12 10.67 -12 10.34 -12 10 C-11.071875 9.7525 -10.14375 9.505 -9.1875 9.25 C-5.77665188 7.9124125 -4.92744809 6.98754454 -3 4 C-2.34 3.67 -1.68 3.34 -1 3 C-0.67 2.01 -0.34 1.02 0 0 Z " fill="#942E3F" transform="translate(26,275)"/>
<path d="M0 0 C2.99220268 1.36370299 5.29026529 2.94908083 7.75 5.125 C8.67039062 5.93324219 8.67039062 5.93324219 9.609375 6.7578125 C10.06828125 7.16773438 10.5271875 7.57765625 11 8 C8 9 8 9 5 9 C5 9.99 5 10.98 5 12 C4.34 11.67 3.68 11.34 3 11 C3.0928125 9.39125 3.0928125 9.39125 3.1875 7.75 C2.99456691 3.89133813 2.60334924 2.71182212 0 0 Z " fill="#8E323A" transform="translate(428,241)"/>
<path d="M0 0 C0.66 0.33 1.32 0.66 2 1 C-0.31 3.31 -2.62 5.62 -5 8 C-11.93359375 5.8515625 -11.93359375 5.8515625 -14 5 C-14.33 4.34 -14.66 3.68 -15 3 C-14.01 2.67 -13.02 2.34 -12 2 C-12 2.66 -12 3.32 -12 4 C-9.36 4.33 -6.72 4.66 -4 5 C-4 4.34 -4 3.68 -4 3 C-3.34 3 -2.68 3 -2 3 C-2 2.34 -2 1.68 -2 1 C-1.34 0.67 -0.68 0.34 0 0 Z " fill="#7B373E" transform="translate(189,192)"/>
<path d="M0 0 C2.375 0.25 2.375 0.25 5 1 C6.125 3 6.125 3 7 5 C7.99 5.33 8.98 5.66 10 6 C11.60546875 7.84765625 11.60546875 7.84765625 13.1875 10.0625 C13.71730469 10.79597656 14.24710938 11.52945313 14.79296875 12.28515625 C15.19128906 12.85105469 15.58960938 13.41695312 16 14 C11.89610729 12.33652892 8.93707246 9.41489664 5.75 6.4375 C5.19570312 5.93025391 4.64140625 5.42300781 4.0703125 4.90039062 C2.69075248 3.6244675 1.34240103 2.31496202 0 1 C0 0.67 0 0.34 0 0 Z " fill="#863740" transform="translate(240,175)"/>
<path d="M0 0 C2.78211944 0.37596209 4.5879284 0.67318459 6.8125 2.4375 C8 4 8 4 8 6 C9.32 6.66 10.64 7.32 12 8 C12 8.66 12 9.32 12 10 C8.78727751 8.56006357 6.3793336 6.76981628 3.75 4.4375 C3.04359375 3.81746094 2.3371875 3.19742188 1.609375 2.55859375 C1.07828125 2.04425781 0.5471875 1.52992188 0 1 C0 0.67 0 0.34 0 0 Z " fill="#5D393F" transform="translate(134,251)"/>
<path d="M0 0 C0 0.33 0 0.66 0 1 C-2.64 1.33 -5.28 1.66 -8 2 C-7.67 2.99 -7.34 3.98 -7 5 C-8.65 5.33 -10.3 5.66 -12 6 C-12 5.01 -12 4.02 -12 3 C-7.77212369 -0.62389398 -5.38545187 -1.53870053 0 0 Z " fill="#913946" transform="translate(283,230)"/>
<path d="M0 0 C0.66 0.33 1.32 0.66 2 1 C2 2.32 2 3.64 2 5 C1.34 5 0.68 5 0 5 C0 5.66 0 6.32 0 7 C-1.65 6.67 -3.3 6.34 -5 6 C-5.33 5.01 -5.66 4.02 -6 3 C-4.68 3 -3.36 3 -2 3 C-2 2.34 -2 1.68 -2 1 C-1.34 0.67 -0.68 0.34 0 0 Z " fill="#AE3240" transform="translate(185,190)"/>
<path d="M0 0 C0.66 0.33 1.32 0.66 2 1 C0.04761147 3.00612399 -1.91137822 5.00492433 -3.875 7 C-4.43058594 7.57234375 -4.98617187 8.1446875 -5.55859375 8.734375 C-7.00134404 10.19450782 -8.4974374 11.60149298 -10 13 C-10.66 13 -11.32 13 -12 13 C-12 12.01 -12 11.02 -12 10 C-10.35178756 8.96986723 -8.68496298 7.96885372 -7 7 C-7 6.34 -7 5.68 -7 5 C-5.35666496 3.96210419 -3.68756133 2.96432076 -2 2 C-1.34 1.34 -0.68 0.68 0 0 Z " fill="#7F313A" transform="translate(205,177)"/>
<path d="M0 0 C3.45483712 1.52012833 6.31495464 3.62614635 9.31640625 5.87890625 C11.11886765 7.18551179 11.11886765 7.18551179 14 8 C13.67 9.32 13.34 10.64 13 12 C10.83035229 10.19096681 8.66421535 8.37801121 6.5 6.5625 C5.87996094 6.04623047 5.25992187 5.52996094 4.62109375 4.99804688 C3.06197284 3.68735732 1.52871719 2.34602708 0 1 C0 0.67 0 0.34 0 0 Z " fill="#81303E" transform="translate(428,255)"/>
<path d="M0 0 C0 0.99 0 1.98 0 3 C-2.40625 5.26171875 -2.40625 5.26171875 -5.5 7.6875 C-6.5209375 8.49574219 -7.541875 9.30398437 -8.59375 10.13671875 C-9.3878125 10.75160156 -10.181875 11.36648437 -11 12 C-11.33 11.01 -11.66 10.02 -12 9 C-11.13375 8.443125 -10.2675 7.88625 -9.375 7.3125 C-6.04054927 5.09747202 -3.03794244 2.60395067 0 0 Z " fill="#85313D" transform="translate(76,235)"/>
<path d="M0 0 C1.485 0.99 1.485 0.99 3 2 C3 2.66 3 3.32 3 4 C3.78375 4.2475 4.5675 4.495 5.375 4.75 C8.32317108 6.15389099 8.9024777 7.00675737 10 10 C9.34 10.66 8.68 11.32 8 12 C7.401875 11.21625 6.80375 10.4325 6.1875 9.625 C4.08914751 6.85425677 4.08914751 6.85425677 1 5 C0.3125 2.375 0.3125 2.375 0 0 Z " fill="#A13A49" transform="translate(110,227)"/>
<path d="M0 0 C1.32 0.33 2.64 0.66 4 1 C2.79157144 5.43090471 1.48331435 7.98112756 -2 11 C-2.66 10.67 -3.32 10.34 -4 10 C-3.525625 9.649375 -3.05125 9.29875 -2.5625 8.9375 C-0.32126175 6.15836457 -0.32882342 3.4855283 0 0 Z " fill="#9A3642" transform="translate(84,222)"/>
<path d="M0 0 C-3.05938081 1.73602074 -5.63288438 2.39557633 -9.125 2.75 C-9.99382812 2.84796875 -10.86265625 2.9459375 -11.7578125 3.046875 C-14 3 -14 3 -16 1 C-5.62642369 -1.48063781 -5.62642369 -1.48063781 0 0 Z " fill="#963B46" transform="translate(390,204)"/>
<path d="M0 0 C1.32 0 2.64 0 4 0 C4 0.66 4 1.32 4 2 C4.928125 1.7215625 4.928125 1.7215625 5.875 1.4375 C8 1 8 1 10 2 C10.625 4.0625 10.625 4.0625 11 6 C10.01 6.495 10.01 6.495 9 7 C8.34 6.67 7.68 6.34 7 6 C7 6.66 7 7.32 7 8 C6.34 7.67 5.68 7.34 5 7 C5.66 5.68 6.32 4.36 7 3 C5.68 3.33 4.36 3.66 3 4 C2.67 3.01 2.34 2.02 2 1 C1.34 0.67 0.68 0.34 0 0 Z " fill="#AE3746" transform="translate(211,147)"/>
<path d="M0 0 C1.32 0.66 2.64 1.32 4 2 C4 2.66 4 3.32 4 4 C4.66 4.33 5.32 4.66 6 5 C5.67 5.99 5.34 6.98 5 8 C3.68 7.67 2.36 7.34 1 7 C0.67 7.99 0.34 8.98 0 10 C-1.32 8.68 -2.64 7.36 -4 6 C-2.02 5.67 -0.04 5.34 2 5 C2 4.34 2 3.68 2 3 C1.34 2.67 0.68 2.34 0 2 C0 1.34 0 0.68 0 0 Z " fill="#AE3849" transform="translate(481,288)"/>
<path d="M0 0 C0.66 0.33 1.32 0.66 2 1 C-0.78688655 4.09654061 -3.06510598 5.65385205 -7 7 C-7.99 7.495 -7.99 7.495 -9 8 C-8.75 5.625 -8.75 5.625 -8 3 C-5.9375 1.6875 -5.9375 1.6875 -4 1 C-3.67 1.66 -3.34 2.32 -3 3 C-2.01 2.01 -1.02 1.02 0 0 Z " fill="#97303D" transform="translate(397,238)"/>
<path d="M0 0 C0.66 0.33 1.32 0.66 2 1 C-0.68673393 4.68182056 -3.07753253 6.74458121 -7 9 C-8.36984198 10.29579647 -9.7151049 11.61992749 -11 13 C-11.66 12.67 -12.32 12.34 -13 12 C-8.84792208 7.7373638 -4.63678779 3.73204871 0 0 Z " fill="#803440" transform="translate(57,238)"/>
<path d="M0 0 C1.98 0 3.96 0 6 0 C6 1.65 6 3.3 6 5 C4.02 5 2.04 5 0 5 C0 3.35 0 1.7 0 0 Z " fill="#A83240" transform="translate(205,187)"/>
<path d="M0 0 C0.33 0 0.66 0 1 0 C1 5.61 1 11.22 1 17 C-1.97 17 -4.94 17 -8 17 C-8 16.67 -8 16.34 -8 16 C-5.69 15.34 -3.38 14.68 -1 14 C-0.67 9.38 -0.34 4.76 0 0 Z " fill="#9A3546" transform="translate(89,282)"/>
<path d="M0 0 C2.52540116 1.08231478 4.06647878 2.06855624 6 4.0625 C7.80514865 6.15800943 7.80514865 6.15800943 10.125 6.4375 C10.74375 6.623125 11.3625 6.80875 12 7 C13.25 9.5625 13.25 9.5625 14 12 C10.31291925 10.42351454 7.70126855 8.12557062 4.75 5.4375 C3.85796875 4.63183594 2.9659375 3.82617188 2.046875 2.99609375 C1.37140625 2.33738281 0.6959375 1.67867187 0 1 C0 0.67 0 0.34 0 0 Z " fill="#87323D" transform="translate(282,213)"/>
<path d="M0 0 C1.010625 0.309375 2.02125 0.61875 3.0625 0.9375 C3.0625 1.5975 3.0625 2.2575 3.0625 2.9375 C2.010625 2.834375 0.95875 2.73125 -0.125 2.625 C-4.09271993 2.57681296 -4.09271993 2.57681296 -6.875 5.4375 C-7.555625 6.2625 -8.23625 7.0875 -8.9375 7.9375 C-9.5975 7.6075 -10.2575 7.2775 -10.9375 6.9375 C-5.17820022 -0.08219365 -5.17820022 -0.08219365 0 0 Z " fill="#82343F" transform="translate(91.9375,184.0625)"/>
<path d="M0 0 C0.66 0.33 1.32 0.66 2 1 C-1.96 4.96 -5.92 8.92 -10 13 C-10 10 -10 10 -7.8125 7.625 C-6.884375 6.75875 -5.95625 5.8925 -5 5 C-4.071875 4.071875 -3.14375 3.14375 -2.1875 2.1875 C-1.1046875 1.1046875 -1.1046875 1.1046875 0 0 Z " fill="#82333E" transform="translate(309,297)"/>
<path d="M0 0 C3.4375 1.25 3.4375 1.25 7 3 C7.9375 5.1875 7.9375 5.1875 8 7 C6.35 7.33 4.7 7.66 3 8 C1.58622659 5.36095629 0.62759865 2.92879371 0 0 Z " fill="#A53845" transform="translate(471,279)"/>
<path d="M0 0 C2.31 0.33 4.62 0.66 7 1 C7.33 2.32 7.66 3.64 8 5 C6.68 5 5.36 5 4 5 C4 4.34 4 3.68 4 3 C2.35 2.67 0.7 2.34 -1 2 C-0.67 1.34 -0.34 0.68 0 0 Z " fill="#9A3944" transform="translate(217,215)"/>
<path d="M0 0 C0.33 1.32 0.66 2.64 1 4 C-3.455 7.465 -3.455 7.465 -8 11 C-8 8 -8 8 -6.625 6.3125 C-5 5 -5 5 -3 5 C-2.690625 4.360625 -2.38125 3.72125 -2.0625 3.0625 C-1 1 -1 1 0 0 Z " fill="#7D4E54" transform="translate(184,165)"/>
<path d="M0 0 C0.8125 1.6875 0.8125 1.6875 1 4 C-1.9166062 7.60286648 -4.58256205 9.61166236 -9 11 C-7.38888555 7.28204357 -5.6649294 5.8324647 -2 4 C-2 3.01 -2 2.02 -2 1 C-1.34 0.67 -0.68 0.34 0 0 Z " fill="#AA3747" transform="translate(46,256)"/>
<path d="M0 0 C0.66 0.33 1.32 0.66 2 1 C0.6875 3 0.6875 3 -1 5 C-1.99 5 -2.98 5 -4 5 C-4.33 6.32 -4.66 7.64 -5 9 C-6.65 9 -8.3 9 -10 9 C-6.83047153 5.73991357 -3.60062011 2.77762123 0 0 Z " fill="#883B45" transform="translate(268,235)"/>
<path d="M0 0 C0.33 0.99 0.66 1.98 1 3 C-1.97 5.31 -4.94 7.62 -8 10 C-8.66 9.67 -9.32 9.34 -10 9 C-8.89902432 7.87187697 -7.79408444 6.74762189 -6.6875 5.625 C-6.07261719 4.99851563 -5.45773438 4.37203125 -4.82421875 3.7265625 C-3 2 -3 2 0 0 Z " fill="#644750" transform="translate(35,233)"/>
<path d="M0 0 C-0.25 1.875 -0.25 1.875 -1 4 C-2.9375 5.125 -2.9375 5.125 -5 6 C-5.66 6.66 -6.32 7.32 -7 8 C-9.125 8.625 -9.125 8.625 -11 9 C-9.33333333 7.33333333 -7.66666667 5.66666667 -6 4 C-5.278125 3.236875 -4.55625 2.47375 -3.8125 1.6875 C-2 0 -2 0 0 0 Z " fill="#89343E" transform="translate(193,181)"/>
<path d="M0 0 C0.66 1.32 1.32 2.64 2 4 C0.02 5.32 -1.96 6.64 -4 8 C-4.33 7.01 -4.66 6.02 -5 5 C-3.35 3.35 -1.7 1.7 0 0 Z " fill="#813E4A" transform="translate(368,259)"/>
<path d="M0 0 C1.29608947 0.93137592 2.58671632 1.8703566 3.875 2.8125 C4.59429687 3.33457031 5.31359375 3.85664063 6.0546875 4.39453125 C8 6 8 6 10 9 C7.03824877 8.38722388 5.61941217 7.74627478 3 6 C3 5.34 3 4.68 3 4 C2.34 4 1.68 4 1 4 C1 3.34 1 2.68 1 2 C0.34 1.67 -0.32 1.34 -1 1 C-0.67 0.67 -0.34 0.34 0 0 Z " fill="#87303A" transform="translate(439,250)"/>
<path d="M0 0 C3.67420866 0.30618405 4.78135513 0.75771784 7.3125 3.5625 C8.1478125 4.7690625 8.1478125 4.7690625 9 6 C8.01 6 7.02 6 6 6 C6 5.34 6 4.68 6 4 C4.68 4.33 3.36 4.66 2 5 C2 4.34 2 3.68 2 3 C1.01 3 0.02 3 -1 3 C-0.67 2.01 -0.34 1.02 0 0 Z " fill="#893543" transform="translate(405,223)"/>
<path d="M0 0 C0 4.09089094 -1.69866948 5.44918487 -4.33203125 8.4140625 C-6.36890116 10.35075848 -8.29054445 11.28279118 -11 12 C-7.49102731 7.81576108 -3.91939465 3.80411834 0 0 Z " fill="#853642" transform="translate(68,202)"/>
<path d="M0 0 C3.23861303 1.44424635 5.61969163 3.25772247 8.25 5.625 C8.95640625 6.25664062 9.6628125 6.88828125 10.390625 7.5390625 C10.92171875 8.02117187 11.4528125 8.50328125 12 9 C11.01 9.495 11.01 9.495 10 10 C8.70450101 8.90033225 7.41373929 7.79508199 6.125 6.6875 C5.40570313 6.07261719 4.68640625 5.45773437 3.9453125 4.82421875 C2 3 2 3 0 0 Z " fill="#7B2C3B" transform="translate(477,283)"/>
<path d="M0 0 C0.66 0 1.32 0 2 0 C2.928125 1.175625 2.928125 1.175625 3.875 2.375 C5.88852174 4.86229156 7.08642859 5.85538266 10 7 C9.67 7.99 9.34 8.98 9 10 C7.68113228 8.90344712 6.37009943 7.79746577 5.0625 6.6875 C4.33160156 6.07261719 3.60070312 5.45773438 2.84765625 4.82421875 C1 3 1 3 0 0 Z " fill="#8C3945" transform="translate(230,165)"/>
<path d="M0 0 C0.66 0.99 1.32 1.98 2 3 C-0.05233685 5.2477975 -1.00667261 6.0022242 -4 7 C-4.66 7.66 -5.32 8.32 -6 9 C-6 6 -6 6 -4.6875 4.39453125 C-4.130625 3.87246094 -3.57375 3.35039062 -3 2.8125 C-2.443125 2.28269531 -1.88625 1.75289062 -1.3125 1.20703125 C-0.6628125 0.60955078 -0.6628125 0.60955078 0 0 Z " fill="#A93549" transform="translate(204,148)"/>
<path d="M0 0 C1.12894876 0.93274109 2.25300876 1.87140122 3.375 2.8125 C4.00148438 3.33457031 4.62796875 3.85664063 5.2734375 4.39453125 C7 6 7 6 9 9 C7.0625 8.6875 7.0625 8.6875 5 8 C4.67 7.01 4.34 6.02 4 5 C1.99983534 3.79117904 1.99983534 3.79117904 0 3 C0 2.01 0 1.02 0 0 Z " fill="#8C3F47" transform="translate(343,186)"/>
<path d="M0 0 C0.66 0.33 1.32 0.66 2 1 C-3.14285714 7.57142857 -3.14285714 7.57142857 -7 9 C-7 6 -7 6 -5.46875 4.39453125 C-4.49421875 3.61142578 -4.49421875 3.61142578 -3.5 2.8125 C-2.8503125 2.28269531 -2.200625 1.75289062 -1.53125 1.20703125 C-1.0259375 0.80871094 -0.520625 0.41039062 0 0 Z " fill="#7F2F3B" transform="translate(42,251)"/>
<path d="M0 0 C0.99 0.33 1.98 0.66 3 1 C2.67 1.99 2.34 2.98 2 4 C1.34 4 0.68 4 0 4 C0 4.66 0 5.32 0 6 C-0.66 6 -1.32 6 -2 6 C-2 6.66 -2 7.32 -2 8 C-2.99 7.67 -3.98 7.34 -5 7 C-4.360625 6.21625 -3.72125 5.4325 -3.0625 4.625 C-1.01857687 2.20460719 -1.01857687 2.20460719 0 0 Z " fill="#A13646" transform="translate(384,244)"/>
<path d="M0 0 C3.21043882 1.38188453 5.04936365 2.92421903 7.25 5.625 C8.03117187 6.57246094 8.03117187 6.57246094 8.828125 7.5390625 C9.40820312 8.26222656 9.40820312 8.26222656 10 9 C7 9 7 9 4.4375 6.75 C2.42724922 4.48202476 1.12774794 2.76810859 0 0 Z " fill="#81333E" transform="translate(437,223)"/>
<path d="M0 0 C2.97 0 5.94 0 9 0 C9 2.64 9 5.28 9 8 C8.67 8 8.34 8 8 8 C7.67 6.02 7.34 4.04 7 2 C6.21625 2.185625 5.4325 2.37125 4.625 2.5625 C2 3 2 3 0 2 C0 1.34 0 0.68 0 0 Z " fill="#8F4654" transform="translate(213,185)"/>
<path d="M0 0 C0.99 0.33 1.98 0.66 3 1 C1.64978174 5.41889613 -0.26115668 7.34345343 -4 10 C-4 6.09538875 -2.66236719 5.66236719 0 3 C0 2.01 0 1.02 0 0 Z " fill="#802B39" transform="translate(198,292)"/>
<path d="M0 0 C4.95 0 9.9 0 15 0 C15 0.33 15 0.66 15 1 C11.04 1 7.08 1 3 1 C3 1.66 3 2.32 3 3 C2.01 3 1.02 3 0 3 C0 2.01 0 1.02 0 0 Z " fill="#9A3744" transform="translate(73,282)"/>
<path d="M0 0 C2.00720923 0.28674418 4.0085944 0.61866701 6 1 C5.67 1.99 5.34 2.98 5 4 C1.9375 5.1875 1.9375 5.1875 -1 6 C-1.042721 4.33388095 -1.04063832 2.66617115 -1 1 C-0.67 0.67 -0.34 0.34 0 0 Z " fill="#A63743" transform="translate(73,232)"/>
<path d="M0 0 C0.66 0.33 1.32 0.66 2 1 C1.34 2.65 0.68 4.3 0 6 C0.99 6 1.98 6 3 6 C3 6.66 3 7.32 3 8 C1.02 7.34 -0.96 6.68 -3 6 C-2.42655063 3.13275314 -2.1385485 2.1385485 0 0 Z " fill="#91343E" transform="translate(180,190)"/>
<path d="M0 0 C0.66 0.33 1.32 0.66 2 1 C-0.31 3.31 -2.62 5.62 -5 8 C-5.33 7.01 -5.66 6.02 -6 5 C-4.02 3.35 -2.04 1.7 0 0 Z " fill="#8D2F3C" transform="translate(326,280)"/>
<path d="M0 0 C1.485 0.99 1.485 0.99 3 2 C3 2.99 3 3.98 3 5 C4.65 5.33 6.3 5.66 8 6 C8 6.66 8 7.32 8 8 C5.125 7.375 5.125 7.375 2 6 C0.625 2.875 0.625 2.875 0 0 Z " fill="#A43941" transform="translate(249,238)"/>
<path d="M0 0 C0.99 0.33 1.98 0.66 3 1 C3 1.33 3 1.66 3 2 C5.97 2.495 5.97 2.495 9 3 C9 3.33 9 3.66 9 4 C6.36 4.33 3.72 4.66 1 5 C0.34 3.68 -0.32 2.36 -1 1 C-0.67 0.67 -0.34 0.34 0 0 Z " fill="#A33A45" transform="translate(163,202)"/>
<path d="M0 0 C0.66 0.33 1.32 0.66 2 1 C0.71034824 2.37562854 -0.62689293 3.70766393 -2 5 C-2.66 5 -3.32 5 -4 5 C-4.33 5.99 -4.66 6.98 -5 8 C-5.99 7.67 -6.98 7.34 -8 7 C-5.36 4.69 -2.72 2.38 0 0 Z " fill="#873942" transform="translate(201,173)"/>
<path d="M0 0 C2.475 0.99 2.475 0.99 5 2 C5 2.66 5 3.32 5 4 C5.66 4.33 6.32 4.66 7 5 C4.625 5.125 4.625 5.125 2 5 C1.34 4.34 0.68 3.68 0 3 C0 2.01 0 1.02 0 0 Z " fill="#7D3C4A" transform="translate(130,246)"/>
<path d="M0 0 C3.63 0.66 7.26 1.32 11 2 C10.01 2.495 10.01 2.495 9 3 C8.67 3.66 8.34 4.32 8 5 C5.36 3.68 2.72 2.36 0 1 C0 0.67 0 0.34 0 0 Z " fill="#913D47" transform="translate(192,209)"/>
<path d="M0 0 C1.65 0 3.3 0 5 0 C5 0.99 5 1.98 5 3 C3.1875 3.625 3.1875 3.625 1 4 C0.01 3.34 -0.98 2.68 -2 2 C-1.34 2 -0.68 2 0 2 C0 1.34 0 0.68 0 0 Z " fill="#B82E43" transform="translate(276,164)"/>
<path d="M0 0 C0.66 0 1.32 0 2 0 C2.66 1.32 3.32 2.64 4 4 C2.35 4.66 0.7 5.32 -1 6 C-1.042721 4.33388095 -1.04063832 2.66617115 -1 1 C-0.67 0.67 -0.34 0.34 0 0 Z " fill="#9F3441" transform="translate(294,144)"/>
<path d="M0 0 C0.66 0 1.32 0 2 0 C0.77065985 3.68802044 -0.93859378 4.72356973 -4 7 C-4.66 6.67 -5.32 6.34 -6 6 C-4 4 -2 2 0 0 Z " fill="#58484B" transform="translate(355,272)"/>
<path d="M0 0 C1.98 0 3.96 0 6 0 C6.33 0.66 6.66 1.32 7 2 C6.34 2 5.68 2 5 2 C5 2.66 5 3.32 5 4 C1.125 3.125 1.125 3.125 0 2 C0 1.34 0 0.68 0 0 Z " fill="#96343A" transform="translate(185,208)"/>
<path d="M0 0 C3.71599191 -0.20086443 4.77208445 -0.1519437 8 2 C7.67 2.99 7.34 3.98 7 5 C3.535 3.02 3.535 3.02 0 1 C0 0.67 0 0.34 0 0 Z " fill="#993942" transform="translate(257,191)"/>
<path d="M0 0 C0.33 0 0.66 0 1 0 C1 1.65 1 3.3 1 5 C2.65 4.34 4.3 3.68 6 3 C4.71937515 4.7074998 3.38232443 6.37373596 2 8 C1.34 8 0.68 8 0 8 C0 5.36 0 2.72 0 0 Z " fill="#7A3642" transform="translate(278,141)"/>
<path d="M0 0 C2.64 1.98 5.28 3.96 8 6 C7.01 6.495 7.01 6.495 6 7 C3 5.1875 3 5.1875 0 3 C0 2.01 0 1.02 0 0 Z " fill="#873F47" transform="translate(240,228)"/>
<path d="M0 0 C1.32 0.33 2.64 0.66 4 1 C3.34 1 2.68 1 2 1 C2.33 1.99 2.66 2.98 3 4 C1.68 4.33 0.36 4.66 -1 5 C-1.33 4.01 -1.66 3.02 -2 2 C-1.34 2 -0.68 2 0 2 C0 1.34 0 0.68 0 0 Z " fill="#A53A47" transform="translate(129,194)"/>
<path d="M0 0 C4.03384128 2.07143201 5.92856799 3.96615872 8 8 C4.63820226 6.55922954 2.40843732 4.75249979 0 2 C0 1.34 0 0.68 0 0 Z " fill="#822B37" transform="translate(95,190)"/>
<path d="M0 0 C4.455 1.98 4.455 1.98 9 4 C5 5 5 5 2.25 3.6875 C1.5075 3.130625 0.765 2.57375 0 2 C0 1.34 0 0.68 0 0 Z " fill="#833A49" transform="translate(296,144)"/>
<path d="M0 0 C2.475 0.99 2.475 0.99 5 2 C3.625 3.5 3.625 3.5 2 5 C1.34 5 0.68 5 0 5 C-0.5625 3.0625 -0.5625 3.0625 -1 1 C-0.67 0.67 -0.34 0.34 0 0 Z " fill="#AA3747" transform="translate(282,138)"/>
<path d="M0 0 C3.875 1.75 3.875 1.75 5 4 C1.125 2.25 1.125 2.25 0 0 Z " fill="#52474D" transform="translate(146,261)"/>
<path d="" fill="#555555" transform="translate(0,0)"/>
<path d="" fill="#5C4C52" transform="translate(0,0)"/>
<path d="" fill="#5D5D5D" transform="translate(0,0)"/>
<path d="" fill="#595555" transform="translate(0,0)"/>
<path d="" fill="#464646" transform="translate(0,0)"/>
<path d="" fill="#50464B" transform="translate(0,0)"/>
<path d="" fill="#4D4D4D" transform="translate(0,0)"/>
<path d="" fill="#494646" transform="translate(0,0)"/>
<path d="" fill="#4E4247" transform="translate(0,0)"/>
<path d="" fill="#4B3C40" transform="translate(0,0)"/>
</svg>
